<svg xmlns="http://www.w3.org/2000/svg" width="216" height="99.262" viewBox="0 0 216 99.262">
  <g id="Group_56908" data-name="Group 56908" transform="translate(-87 -322.738)">
    <path id="Path_45979" data-name="Path 45979" d="M63,134h91a7.056,7.056,0,0,0,1.5-.161A7.056,7.056,0,0,0,157,134h52a7,7,0,0,0,0-14h-6a7,7,0,0,1,0-14h19a7,7,0,0,0,0-14H200a7,7,0,0,0,0-14H136a7,7,0,0,0,0-14H79a7,7,0,0,0,0,14H39a7,7,0,0,0,0,14H64a7,7,0,0,1,0,14H24a7,7,0,0,0,0,14H63a7,7,0,0,0,0,14Zm163,0a7,7,0,1,0-7-7A7,7,0,0,0,226,134Z" transform="translate(70 288)" fill="#daeff4" fill-rule="evenodd"/>
    <path id="Path_45984" data-name="Path 45984" d="M89.662,79.311a34.341,34.341,0,0,0-2.35,4.761" transform="translate(83 265)" fill="none" stroke="#bbe6f0" stroke-linecap="round" stroke-width="2.5"/>
    <g id="Group_56907" data-name="Group 56907" transform="translate(150.664 310.904)">
      <path id="Path_45989" data-name="Path 45989" d="M11.556,4H28.668l8.556,21.39-10.7,6.417A47.058,47.058,0,0,0,47.919,53.2l6.417-10.7,21.39,8.556V68.171a8.556,8.556,0,0,1-8.556,8.556A68.449,68.449,0,0,1,3,12.556,8.556,8.556,0,0,1,11.556,4" transform="translate(9.834 13.112)" fill="#fafafa" stroke="#63c9e1" stroke-linecap="round" stroke-linejoin="round" stroke-width="2"/>
      <path id="Path_45990" data-name="Path 45990" d="M15,7a8.556,8.556,0,0,1,8.556,8.556" transform="translate(49.171 22.946)" fill="none" stroke="#63c9e1" stroke-linecap="round" stroke-linejoin="round" stroke-width="2"/>
      <path id="Path_45991" data-name="Path 45991" d="M15,3A25.668,25.668,0,0,1,40.668,28.668" transform="translate(49.171 9.834)" fill="none" stroke="#63c9e1" stroke-linecap="round" stroke-linejoin="round" stroke-width="2"/>
    </g>
  </g>
</svg>
