<svg xmlns="http://www.w3.org/2000/svg" width="216" height="100.98" viewBox="0 0 216 100.98">
  <g id="Group_56909" data-name="Group 56909" transform="translate(-17 -47.75)">
    <path id="Path_45992" data-name="Path 45992" d="M63,134h91a7.056,7.056,0,0,0,1.5-.161A7.056,7.056,0,0,0,157,134h52a7,7,0,0,0,0-14h-6a7,7,0,0,1,0-14h19a7,7,0,0,0,0-14H200a7,7,0,0,0,0-14H136a7,7,0,0,0,0-14H79a7,7,0,0,0,0,14H39a7,7,0,0,0,0,14H64a7,7,0,0,1,0,14H24a7,7,0,0,0,0,14H63a7,7,0,0,0,0,14Zm163,0a7,7,0,1,0-7-7A7,7,0,0,0,226,134Z" fill="#daeff4" fill-rule="evenodd"/>
    <path id="Path_45993" data-name="Path 45993" d="M168.577,126.075a67.724,67.724,0,0,1-7.933,5.3l.165,14.083a2,2,0,0,1-3.22,1.609l-12.663-9.743A66.52,66.52,0,0,1,130,139c-30.376,0-55-20.147-55-45s24.624-45,55-45,55,20.147,55,45a38.178,38.178,0,0,1-5.259,19.227q-.933,1.614-2.015,3.154A43.988,43.988,0,0,1,173.5,121.5,42.574,42.574,0,0,1,168.577,126.075Z" fill="#fafafa" fill-rule="evenodd"/>
    <path id="Path_45994" data-name="Path 45994" d="M168.577,126.075a67.724,67.724,0,0,1-7.933,5.3l.165,14.083a2,2,0,0,1-3.22,1.609l-12.663-9.743A66.52,66.52,0,0,1,130,139c-30.376,0-55-20.147-55-45s24.624-45,55-45,55,20.147,55,45a38.178,38.178,0,0,1-5.259,19.227q-.933,1.614-2.015,3.154A43.988,43.988,0,0,1,173.5,121.5,42.574,42.574,0,0,1,168.577,126.075Z" fill="none" stroke="#63c9e1" stroke-linecap="round" stroke-width="2.5" fill-rule="evenodd"/>
    <path id="Path_45995" data-name="Path 45995" d="M162.853,81.59a64.038,64.038,0,0,0,15.2-1.8A34.469,34.469,0,0,1,181,93.707a34.986,34.986,0,0,1-4.877,17.71q-.864,1.486-1.868,2.9c-1.055,1.493-1.807,2.547-2.47,3.392-1.566,2-2.63,2.83-6.014,5.536a50.554,50.554,0,0,1-7.356,4.881l.153,12.972c.012,1.017.321,2.885-.7,2.9a9.134,9.134,0,0,1-2.282-1.416l-10.21-9.117A76.6,76.6,0,0,1,130,135.156c-28.167,0-51-18.557-51-41.449C79,74.961,94.313,59.121,115.328,54,120.832,69.874,140.023,81.59,162.853,81.59Zm-52.562,6.559a6.023,6.023,0,1,0,5.984,6.023A6,6,0,0,0,110.291,88.148Zm18.95,0a6.023,6.023,0,1,0,5.984,6.023A6,6,0,0,0,129.241,88.148Zm18.95,0a6.023,6.023,0,1,0,5.985,6.023A6,6,0,0,0,148.191,88.148Z" fill="#bbe6f0" fill-rule="evenodd"/>
    <path id="Path_45996" data-name="Path 45996" d="M110,88a6,6,0,1,1-6,6A6,6,0,0,1,110,88Zm19,0a6,6,0,1,1-6,6A6,6,0,0,1,129,88Zm19,0a6,6,0,1,1-6,6A6,6,0,0,1,148,88Z" fill="#fafafa" stroke="#63c9e1" stroke-width="2.5" fill-rule="evenodd"/>
    <path id="Path_45997" data-name="Path 45997" d="M89.662,79.311a34.341,34.341,0,0,0-2.35,4.761" fill="none" stroke="#92d0df" stroke-linecap="round" stroke-width="2.5"/>
    <path id="Path_45998" data-name="Path 45998" d="M108.022,63.073A43.534,43.534,0,0,0,91.939,75.92" fill="none" stroke="#92d0df" stroke-linecap="round" stroke-width="2.5"/>
  </g>
</svg>
