<svg width="178" height="178" viewBox="0 0 178 178" fill="none" xmlns="http://www.w3.org/2000/svg">
<g opacity="0.22">
<path d="M161.325 0H139.733C138.534 0 137.385 0.476213 136.537 1.32388C135.689 2.17154 135.213 3.32122 135.213 4.52C135.213 5.71878 135.689 6.86846 136.537 7.71612C137.385 8.56379 138.534 9.04 139.733 9.04H161.325C163.349 9.04238 165.29 9.84768 166.721 11.2792C168.153 12.7108 168.958 14.6516 168.96 16.676V38.267C168.951 38.8662 169.061 39.4611 169.285 40.0173C169.508 40.5734 169.839 41.0796 170.26 41.5065C170.68 41.9334 171.181 42.2723 171.734 42.5037C172.287 42.7351 172.88 42.8542 173.48 42.8542C174.079 42.8542 174.672 42.7351 175.225 42.5037C175.778 42.2723 176.279 41.9334 176.699 41.5065C177.12 41.0796 177.451 40.5734 177.674 40.0173C177.898 39.4611 178.008 38.8662 177.999 38.267V16.675C177.994 12.2542 176.236 8.01595 173.11 4.8899C169.984 1.76385 165.746 0.00529338 161.325 0Z" fill="black"/>
<path d="M4.52 42.787C5.71878 42.787 6.86846 42.3108 7.71612 41.4631C8.56379 40.6155 9.04 39.4658 9.04 38.267V16.675C9.04238 14.6508 9.84755 12.7102 11.2789 11.2789C12.7102 9.84755 14.6508 9.04238 16.675 9.04H38.267C39.4658 9.04 40.6155 8.56379 41.4631 7.71612C42.3108 6.86846 42.787 5.71878 42.787 4.52C42.787 3.32122 42.3108 2.17154 41.4631 1.32388C40.6155 0.476213 39.4658 0 38.267 0L16.675 0C12.2541 0.00502876 8.01563 1.76347 4.88955 4.88955C1.76347 8.01563 0.00502876 12.2541 0 16.675L0 38.267C0 39.4658 0.476213 40.6155 1.32388 41.4631C2.17154 42.3108 3.32122 42.787 4.52 42.787Z" fill="black"/>
<path d="M38.267 168.961H16.675C14.6506 168.958 12.7099 168.153 11.2785 166.722C9.84717 165.29 9.04212 163.349 9.04 161.325V139.733C9.04 138.534 8.56379 137.384 7.71612 136.537C6.86846 135.689 5.71878 135.213 4.52 135.213C3.32122 135.213 2.17154 135.689 1.32388 136.537C0.476213 137.384 0 138.534 0 139.733L0 161.325C0.00502876 165.746 1.76347 169.984 4.88955 173.11C8.01563 176.236 12.2541 177.995 16.675 178H38.267C38.8662 178.009 39.4611 177.898 40.0173 177.675C40.5734 177.452 41.0796 177.121 41.5065 176.7C41.9334 176.28 42.2723 175.778 42.5037 175.226C42.7351 174.673 42.8542 174.08 42.8542 173.48C42.8542 172.881 42.7351 172.288 42.5037 171.735C42.2723 171.182 41.9334 170.681 41.5065 170.261C41.0796 169.84 40.5734 169.509 40.0173 169.285C39.4611 169.062 38.8662 168.952 38.267 168.961Z" fill="black"/>
<path d="M173.48 135.213C172.281 135.213 171.132 135.689 170.284 136.537C169.436 137.384 168.96 138.534 168.96 139.733V161.325C168.958 163.349 168.153 165.29 166.722 166.722C165.29 168.153 163.349 168.958 161.325 168.961H139.733C138.546 168.979 137.414 169.462 136.58 170.308C135.747 171.154 135.28 172.293 135.28 173.48C135.28 174.668 135.747 175.807 136.58 176.653C137.414 177.498 138.546 177.982 139.733 178H161.325C165.746 177.995 169.984 176.236 173.111 173.11C176.237 169.984 177.995 165.746 178 161.325V139.733C178 138.534 177.524 137.384 176.676 136.537C175.829 135.689 174.679 135.213 173.48 135.213Z" fill="black"/>
<path d="M132.897 26.9941H147.234C148.175 26.9952 149.077 27.3695 149.743 28.035C150.409 28.7006 150.783 29.6029 150.784 30.5441V44.8791C150.775 45.4783 150.885 46.0732 151.108 46.6294C151.332 47.1855 151.663 47.6917 152.084 48.1186C152.504 48.5455 153.005 48.8844 153.558 49.1158C154.111 49.3472 154.704 49.4663 155.303 49.4663C155.903 49.4663 156.496 49.3472 157.049 49.1158C157.601 48.8844 158.103 48.5455 158.523 48.1186C158.944 47.6917 159.275 47.1855 159.498 46.6294C159.722 46.0732 159.832 45.4783 159.823 44.8791V30.5441C159.82 27.206 158.493 24.0054 156.133 21.6449C153.773 19.2844 150.572 17.957 147.234 17.9541H132.897C131.698 17.9541 130.549 18.4303 129.701 19.278C128.853 20.1256 128.377 21.2753 128.377 22.4741C128.377 23.6729 128.853 24.8226 129.701 25.6702C130.549 26.5179 131.698 26.9941 132.897 26.9941Z" fill="black"/>
<path d="M18.178 30.5441V44.8791C18.1691 45.4783 18.2794 46.0732 18.5025 46.6294C18.7256 47.1855 19.0571 47.6917 19.4777 48.1186C19.8982 48.5455 20.3995 48.8844 20.9522 49.1158C21.505 49.3472 22.0983 49.4663 22.6975 49.4663C23.2967 49.4663 23.89 49.3472 24.4427 49.1158C24.9955 48.8844 25.4967 48.5455 25.9173 48.1186C26.3379 47.6917 26.6693 47.1855 26.8925 46.6294C27.1156 46.0732 27.2259 45.4783 27.217 44.8791V30.5441C27.2181 29.6029 27.5924 28.7006 28.2579 28.035C28.9235 27.3695 29.8258 26.9952 30.767 26.9941H45.102C46.3008 26.9941 47.4505 26.5179 48.2981 25.6702C49.1458 24.8226 49.622 23.6729 49.622 22.4741C49.622 21.2753 49.1458 20.1256 48.2981 19.278C47.4505 18.4303 46.3008 17.9541 45.102 17.9541H30.768C27.4297 17.9567 24.229 19.284 21.8684 21.6446C19.5079 24.0051 18.1806 27.2058 18.178 30.5441Z" fill="black"/>
<path d="M45.103 150.558H30.768C29.8268 150.557 28.9244 150.183 28.2589 149.517C27.5934 148.852 27.219 147.949 27.218 147.008V132.673C27.2269 132.074 27.1166 131.479 26.8934 130.923C26.6703 130.367 26.3388 129.861 25.9183 129.434C25.4977 129.007 24.9965 128.668 24.4437 128.436C23.891 128.205 23.2977 128.086 22.6985 128.086C22.0992 128.086 21.506 128.205 20.9532 128.436C20.4005 128.668 19.8992 129.007 19.4787 129.434C19.0581 129.861 18.7266 130.367 18.5035 130.923C18.2804 131.479 18.1701 132.074 18.179 132.673V147.009C18.1816 150.347 19.5089 153.548 21.8694 155.909C24.2299 158.269 27.4307 159.597 30.769 159.599H45.104C46.3027 159.599 47.4524 159.123 48.3001 158.275C49.1478 157.428 49.624 156.278 49.624 155.079C49.624 153.88 49.1478 152.731 48.3001 151.883C47.4524 151.035 46.3027 150.559 45.104 150.559L45.103 150.558Z" fill="black"/>
<path d="M159.822 147.009V132.673C159.831 132.074 159.721 131.479 159.497 130.923C159.274 130.367 158.943 129.861 158.522 129.434C158.102 129.007 157.6 128.668 157.048 128.436C156.495 128.205 155.902 128.086 155.302 128.086C154.703 128.086 154.11 128.205 153.557 128.436C153.004 128.668 152.503 129.007 152.083 129.434C151.662 129.861 151.331 130.367 151.107 130.923C150.884 131.479 150.774 132.074 150.783 132.673V147.009C150.782 147.95 150.408 148.853 149.742 149.518C149.076 150.184 148.174 150.558 147.233 150.559H132.897C131.698 150.559 130.549 151.035 129.701 151.883C128.853 152.731 128.377 153.88 128.377 155.079C128.377 156.278 128.853 157.428 129.701 158.275C130.549 159.123 131.698 159.599 132.897 159.599H147.234C150.572 159.596 153.772 158.268 156.132 155.908C158.492 153.548 159.819 150.347 159.822 147.009Z" fill="black"/>
<path d="M0.301025 89.0005C0.301025 91.5005 2.63703 93.5205 5.51903 93.5205H172.481C175.362 93.5205 177.699 91.4965 177.699 89.0005C177.699 86.5045 175.362 84.4805 172.481 84.4805H5.51903C2.63703 84.4805 0.301025 86.5045 0.301025 89.0005Z" fill="black"/>
</g>
</svg>
