<svg width="31" height="31" viewBox="0 0 31 31" fill="none" xmlns="http://www.w3.org/2000/svg">
<path d="M26.795 0H21.35C21.0476 0 20.7576 0.120107 20.5439 0.333898C20.3301 0.54769 20.21 0.837653 20.21 1.14C20.21 1.44235 20.3301 1.73231 20.5439 1.9461C20.7576 2.15989 21.0476 2.28 21.35 2.28H26.795C27.3054 2.28079 27.7947 2.484 28.1556 2.84505C28.5165 3.2061 28.7194 3.69553 28.72 4.206V9.65C28.72 9.95235 28.8401 10.2423 29.0539 10.4561C29.2677 10.6699 29.5576 10.79 29.86 10.79C30.1623 10.79 30.4523 10.6699 30.6661 10.4561C30.8799 10.2423 31 9.95235 31 9.65V4.205C30.9986 3.09017 30.5552 2.02138 29.7669 1.23308C28.9786 0.444774 27.9098 0.00132324 26.795 0Z" fill="black"/>
<path d="M1.14 10.79C1.44235 10.79 1.73231 10.6699 1.9461 10.4561C2.15989 10.2423 2.28 9.95235 2.28 9.65V4.205C2.28079 3.6947 2.48386 3.20553 2.8447 2.8447C3.20553 2.48386 3.6947 2.28079 4.205 2.28H9.65C9.95235 2.28 10.2423 2.15989 10.4561 1.9461C10.6699 1.73231 10.79 1.44235 10.79 1.14C10.79 0.837653 10.6699 0.54769 10.4561 0.333898C10.2423 0.120107 9.95235 0 9.65 0L4.205 0C3.09017 0.00132324 2.02138 0.444774 1.23308 1.23308C0.444774 2.02138 0.00132324 3.09017 0 4.205L0 9.65C0 9.95235 0.120107 10.2423 0.333898 10.4561C0.54769 10.6699 0.837653 10.79 1.14 10.79Z" fill="black"/>
<path d="M9.65 28.72H4.205C3.69453 28.7192 3.20521 28.516 2.84434 28.1549C2.48348 27.7939 2.28053 27.3044 2.28 26.794V21.35C2.28 21.0476 2.15989 20.7576 1.9461 20.5439C1.73231 20.3301 1.44235 20.21 1.14 20.21C0.837653 20.21 0.54769 20.3301 0.333898 20.5439C0.120107 20.7576 0 21.0476 0 21.35L0 26.795C0.00132324 27.9098 0.444774 28.9786 1.23308 29.7669C2.02138 30.5552 3.09017 30.9986 4.205 31H9.65C9.95235 31 10.2423 30.8799 10.4561 30.6661C10.6699 30.4523 10.79 30.1623 10.79 29.86C10.79 29.5576 10.6699 29.2677 10.4561 29.0539C10.2423 28.8401 9.95235 28.72 9.65 28.72Z" fill="black"/>
<path d="M29.86 20.21C29.5576 20.21 29.2677 20.3301 29.0539 20.5439C28.8401 20.7576 28.72 21.0476 28.72 21.35V26.795C28.7194 27.3054 28.5165 27.7949 28.1556 28.1559C27.7947 28.517 27.3054 28.7202 26.795 28.7209H21.35C21.2003 28.7209 21.052 28.7504 20.9137 28.8077C20.7754 28.865 20.6497 28.949 20.5439 29.0549C20.438 29.1607 20.354 29.2864 20.2968 29.4247C20.2395 29.563 20.21 29.7113 20.21 29.861C20.21 30.0107 20.2395 30.1589 20.2968 30.2972C20.354 30.4355 20.438 30.5612 20.5439 30.6671C20.6497 30.7729 20.7754 30.8569 20.9137 30.9142C21.052 30.9715 21.2003 31.0009 21.35 31.0009H26.795C27.9098 30.9996 28.9786 30.5562 29.7669 29.7679C30.5552 28.9796 30.9986 27.9108 31 26.796V21.35C31 21.0476 30.8799 20.7576 30.6661 20.5439C30.4523 20.3301 30.1623 20.21 29.86 20.21Z" fill="black"/>
<path d="M19.626 6.80832H23.243C23.4817 6.80832 23.7107 6.90314 23.8795 7.07192C24.0482 7.24071 24.143 7.46963 24.143 7.70832V11.3183C24.143 11.6207 24.2632 11.9106 24.477 12.1244C24.6908 12.3382 24.9807 12.4583 25.2831 12.4583C25.5854 12.4583 25.8754 12.3382 26.0891 12.1244C26.3029 11.9106 26.423 11.6207 26.423 11.3183V7.70332C26.4222 6.86064 26.0868 6.05277 25.4905 5.45737C24.8941 4.86197 24.0857 4.52779 23.243 4.52832H19.6281C19.3257 4.52832 19.0358 4.64843 18.822 4.86222C18.6082 5.07601 18.488 5.36597 18.488 5.66832C18.488 5.97067 18.6082 6.26063 18.822 6.47442C19.0358 6.68821 19.3257 6.80832 19.6281 6.80832H19.626Z" fill="black"/>
<path d="M4.58399 7.70344V11.3184C4.58399 11.6208 4.70409 11.9107 4.91789 12.1245C5.13168 12.3383 5.42164 12.4584 5.72398 12.4584C6.02633 12.4584 6.31629 12.3383 6.53008 12.1245C6.74387 11.9107 6.86398 11.6208 6.86398 11.3184V7.70344C6.86398 7.58525 6.88727 7.46821 6.9325 7.35902C6.97773 7.24982 7.04401 7.15061 7.12759 7.06704C7.21116 6.98347 7.31038 6.91717 7.41957 6.87194C7.52876 6.82671 7.6458 6.80344 7.76399 6.80344H11.374C11.6763 6.80344 11.9663 6.68333 12.1801 6.46954C12.3939 6.25574 12.514 5.96578 12.514 5.66344C12.514 5.36109 12.3939 5.07112 12.1801 4.85733C11.9663 4.64354 11.6763 4.52344 11.374 4.52344H7.75899C6.9163 4.52423 6.10843 4.85968 5.51303 5.45602C4.91763 6.05235 4.58345 6.86075 4.58399 7.70344Z" fill="black"/>
<path d="M11.374 24.0798H7.75898C7.52028 24.0798 7.29136 23.985 7.12258 23.8162C6.9538 23.6474 6.85898 23.4185 6.85898 23.1798V19.5648C6.85898 19.2624 6.73887 18.9725 6.52508 18.7587C6.31129 18.5449 6.02133 18.4248 5.71898 18.4248C5.41663 18.4248 5.12666 18.5449 4.91287 18.7587C4.69908 18.9725 4.57898 19.2624 4.57898 19.5648V23.1858C4.57977 24.0276 4.91453 24.8347 5.50979 25.43C6.10504 26.0252 6.91216 26.36 7.75397 26.3608H11.374C11.5237 26.3608 11.6719 26.3313 11.8102 26.274C11.9485 26.2167 12.0742 26.1327 12.1801 26.0269C12.2859 25.921 12.3699 25.7954 12.4272 25.657C12.4845 25.5187 12.514 25.3705 12.514 25.2208C12.514 25.0711 12.4845 24.9229 12.4272 24.7845C12.3699 24.6462 12.2859 24.5206 12.1801 24.4147C12.0742 24.3088 11.9485 24.2249 11.8102 24.1676C11.6719 24.1103 11.5237 24.0808 11.374 24.0808V24.0798Z" fill="black"/>
<path d="M26.416 23.1857V19.5707C26.416 19.421 26.3865 19.2727 26.3292 19.1344C26.2719 18.9961 26.1879 18.8704 26.0821 18.7646C25.9762 18.6587 25.8505 18.5747 25.7122 18.5175C25.5739 18.4602 25.4257 18.4307 25.276 18.4307C25.1263 18.4307 24.978 18.4602 24.8397 18.5175C24.7014 18.5747 24.5757 18.6587 24.4698 18.7646C24.364 18.8704 24.28 18.9961 24.2227 19.1344C24.1655 19.2727 24.136 19.421 24.136 19.5707V23.1857C24.136 23.4244 24.0411 23.6533 23.8723 23.8221C23.7036 23.9909 23.4747 24.0857 23.236 24.0857H19.621C19.3186 24.0857 19.0286 24.2058 18.8148 24.4196C18.6011 24.6334 18.481 24.9233 18.481 25.2257C18.481 25.528 18.6011 25.818 18.8148 26.0318C19.0286 26.2456 19.3186 26.3657 19.621 26.3657H23.243C24.0853 26.3643 24.8926 26.0287 25.4876 25.4324C26.0826 24.8361 26.4165 24.028 26.416 23.1857Z" fill="black"/>
<path d="M0.0760318 15.5004C0.0488343 15.7711 0.128418 16.0418 0.297832 16.2547C0.467246 16.4676 0.713101 16.606 0.983032 16.6404H30.017C30.2748 16.5808 30.5048 16.4357 30.6695 16.2287C30.8341 16.0216 30.9238 15.7649 30.9238 15.5004C30.9238 15.2358 30.8341 14.9791 30.6695 14.772C30.5048 14.565 30.2748 14.4199 30.017 14.3604H0.983032C0.713101 14.3947 0.467246 14.5331 0.297832 14.746C0.128418 14.9589 0.0488343 15.2296 0.0760318 15.5004Z" fill="black"/>
</svg>
