<svg xmlns="http://www.w3.org/2000/svg" width="167" height="86.889" viewBox="0 0 167 86.889">
  <g id="Group_56921" data-name="Group 56921" transform="translate(-47 -64.75)">
    <path id="Path_46031" data-name="Path 46031" d="M207,65a7,7,0,0,1,0,14H167a7,7,0,0,1,0,14h22a7,7,0,0,1,0,14H178.826c-4.874,0-8.826,3.134-8.826,7q0,3.866,6,7a7,7,0,0,1,0,14H93a7,7,0,0,1,0-14H54a7,7,0,0,1,0-14H94a7,7,0,0,0,0-14H69a7,7,0,0,1,0-14h40a7,7,0,0,1,0-14Zm0,28a7,7,0,1,1-7,7A7,7,0,0,1,207,93Z" fill="#daeff4" fill-rule="evenodd"/>
    <path id="Path_46032" data-name="Path 46032" d="M120.5,133A33.5,33.5,0,1,0,87,99.5,33.5,33.5,0,0,0,120.5,133Z" fill="#f3f7ff" stroke="#63c9e1" stroke-width="2.5"/>
    <path id="Path_46033" data-name="Path 46033" d="M115.132,125.494A30.691,30.691,0,0,0,120.5,126a26.531,26.531,0,1,0-19.816-8.9" fill="#fafafa" fill-rule="evenodd"/>
    <path id="Path_46034" data-name="Path 46034" d="M115.132,125.494A30.691,30.691,0,0,0,120.5,126a26.531,26.531,0,1,0-19.816-8.9" fill="none" stroke="#63c9e1" stroke-linecap="round" stroke-width="2.5"/>
    <path id="Path_46035" data-name="Path 46035" d="M103.8,120.075a26.491,26.491,0,0,0,7.2,4.172" fill="none" stroke="#63c9e1" stroke-linecap="round" stroke-width="2.5"/>
    <path id="Path_46036" data-name="Path 46036" d="M148,126l6,6" fill="none" stroke="#63c9e1" stroke-width="2.5"/>
    <path id="Path_46037" data-name="Path 46037" d="M153.03,131.03a4.848,4.848,0,0,0,0,6.854l11.086,11.086a4.847,4.847,0,0,0,6.854-6.854L159.884,131.03A4.848,4.848,0,0,0,153.03,131.03Z" fill="#e8f0fe" stroke="#63c9e1" stroke-width="2.5" fill-rule="evenodd"/>
    <path id="Path_46038" data-name="Path 46038" d="M158,133l11,11" fill="none" stroke="#fff" stroke-linecap="round" stroke-width="2.5"/>
    <path id="Path_46039" data-name="Path 46039" d="M114,88a21.015,21.015,0,0,0,27.526,19.966A22.664,22.664,0,1,1,117.045,77.1,20.913,20.913,0,0,0,114,88Z" fill="#bbe6f0" fill-rule="evenodd"/>
    <path id="Path_46040" data-name="Path 46040" d="M121,81a19.1,19.1,0,0,0-3.721.364m-3.634,1.112A19.005,19.005,0,0,0,102,100" fill="none" stroke="#63c9e1" stroke-linecap="round" stroke-width="2.5"/>
    <path id="Path_46041" data-name="Path 46041" d="M174.176,99.777H166M180.5,92h0Zm7,0h0Z" fill="none" stroke="#63c9e1" stroke-linecap="round" stroke-linejoin="round" stroke-width="2.5"/>
    <path id="Path_46042" data-name="Path 46042" d="M84.176,121.777H76M79.5,113h0Zm-23,0h0Z" fill="none" stroke="#63c9e1" stroke-linecap="round" stroke-linejoin="round" stroke-width="2.5"/>
  </g>
</svg>
