<svg width="23" height="23" viewBox="0 0 23 23" fill="none" xmlns="http://www.w3.org/2000/svg">
<path d="M11.5 23C17.8513 23 23 17.8513 23 11.5C23 5.14873 17.8513 0 11.5 0C5.14873 0 0 5.14873 0 11.5C0 17.8513 5.14873 23 11.5 23Z" fill="#1F83F4"/>
<path d="M11.516 17.0301C11.2608 17.0301 11.0114 16.9545 10.7993 16.8127C10.5872 16.671 10.4218 16.4695 10.3242 16.2338C10.2265 15.9981 10.201 15.7387 10.2508 15.4885C10.3005 15.2382 10.4234 15.0084 10.6038 14.828C10.7842 14.6476 11.0141 14.5247 11.2643 14.4749C11.5146 14.4252 11.7739 14.4507 12.0096 14.5483C12.2454 14.646 12.4468 14.8113 12.5886 15.0235C12.7303 15.2356 12.806 15.485 12.806 15.7401C12.806 16.0823 12.6701 16.4104 12.4282 16.6523C12.1862 16.8942 11.8581 17.0301 11.516 17.0301ZM13.305 8.06214L12.669 12.3411C12.6288 12.6135 12.4925 12.8625 12.2847 13.0432C12.0768 13.2238 11.8112 13.324 11.5359 13.3259C11.2606 13.3277 10.9937 13.2309 10.7835 13.053C10.5733 12.8752 10.4337 12.628 10.39 12.3561L9.69998 8.08515C9.65481 7.84581 9.65803 7.59985 9.70945 7.36177C9.76087 7.1237 9.85945 6.89833 9.99938 6.69898C10.1393 6.49962 10.3177 6.3303 10.5242 6.20102C10.7306 6.07174 10.9608 5.9851 11.2012 5.94623C11.4417 5.90736 11.6875 5.91704 11.9241 5.97469C12.1607 6.03235 12.3834 6.13681 12.5791 6.28192C12.7747 6.42704 12.9393 6.60986 13.0631 6.8196C13.1869 7.02935 13.2674 7.26177 13.3 7.50314C13.3292 7.68824 13.3305 7.87665 13.304 8.06214H13.305Z" fill="#FAFAFA"/>
</svg>
