<svg width="8" height="14" viewBox="0 0 8 14" fill="none" xmlns="http://www.w3.org/2000/svg">
<path id="Arrow_Back" d="M2.572 6.99897L7.33737 2.23735C7.50588 2.06835 7.60035 1.83933 7.6 1.60067C7.59964 1.36202 7.5045 1.13328 7.3355 0.964771C7.16649 0.796265 6.93747 0.701797 6.69882 0.702149C6.46016 0.702502 6.23142 0.797645 6.06291 0.966649L0.6636 6.35845C0.499825 6.5219 0.405475 6.74227 0.400225 6.97359C0.394976 7.20491 0.479233 7.42933 0.635425 7.60004L6.05728 13.0332C6.22579 13.2022 6.45453 13.2973 6.69318 13.2977C6.93184 13.298 7.16086 13.2035 7.32986 13.035C7.49887 12.8665 7.59401 12.6378 7.59436 12.3991C7.59471 12.1605 7.50024 11.9315 7.33174 11.7625L2.572 6.99897Z" fill="black"/>
</svg>
