<svg width="18" height="22" viewBox="0 0 18 22" fill="none" xmlns="http://www.w3.org/2000/svg">
<path d="M12.3464 0.870731C9.73644 1.36183 7.41508 2.83721 5.86237 4.99173H4.77337C3.63519 4.99332 2.54407 5.44609 1.73916 6.25081C0.934251 7.05554 0.481222 8.14655 0.47937 9.28473L0.47937 12.7197C0.480957 13.8581 0.933869 14.9494 1.73881 15.7543C2.54374 16.5592 3.63502 17.0121 4.77337 17.0137H5.86337C7.41677 19.1666 9.73811 20.6402 12.3474 21.1297C12.4712 21.1524 12.5984 21.1477 12.7202 21.1158C12.8419 21.0838 12.9552 21.0256 13.0519 20.9451C13.1486 20.8645 13.2265 20.7637 13.28 20.6498C13.3335 20.5359 13.3612 20.4116 13.3614 20.2857V1.71973C13.362 1.59335 13.3347 1.46839 13.2815 1.35375C13.2283 1.23912 13.1505 1.13764 13.0535 1.05656C12.9566 0.975469 12.8429 0.916772 12.7207 0.884651C12.5985 0.852531 12.4707 0.847778 12.3464 0.870731Z" fill="#404040"/>
<path d="M15.8495 6.95825C15.7709 6.87369 15.6761 6.80585 15.5707 6.75877C15.4652 6.71168 15.3514 6.68633 15.236 6.68423C15.1206 6.68212 15.0059 6.7033 14.8989 6.7465C14.7918 6.78971 14.6946 6.85405 14.6129 6.93568C14.5313 7.01731 14.467 7.11456 14.4237 7.22161C14.3805 7.32867 14.3594 7.44334 14.3615 7.55876C14.3636 7.67419 14.3889 7.788 14.436 7.89341C14.4831 7.99882 14.5509 8.09365 14.6355 8.17225C15.3842 8.92301 15.8046 9.94 15.8046 11.0003C15.8046 12.0605 15.3842 13.0775 14.6355 13.8283C14.5509 13.9068 14.4831 14.0017 14.436 14.1071C14.3889 14.2125 14.3636 14.3263 14.3615 14.4417C14.3594 14.5572 14.3805 14.6718 14.4237 14.7789C14.467 14.8859 14.5313 14.9832 14.6129 15.0648C14.6946 15.1465 14.7918 15.2108 14.8989 15.254C15.0059 15.2972 15.1206 15.3184 15.236 15.3163C15.3514 15.3142 15.4652 15.2888 15.5707 15.2417C15.6761 15.1947 15.7709 15.1268 15.8495 15.0423C16.9196 13.9692 17.5205 12.5157 17.5205 11.0003C17.5205 9.48484 16.9196 8.03126 15.8495 6.95825Z" fill="#404040"/>
</svg>
