<svg width="16" height="16" viewBox="0 0 16 16" fill="none" xmlns="http://www.w3.org/2000/svg">
<path d="M6.47955 7.99906L11.5535 2.92906C11.733 2.74912 11.8336 2.50526 11.8332 2.25115C11.8328 1.99704 11.7315 1.75348 11.5515 1.57406C11.3716 1.39465 11.1277 1.29406 10.8736 1.29443C10.6195 1.29481 10.376 1.39612 10.1965 1.57606L4.44755 7.31706C4.27317 7.4911 4.17271 7.72574 4.16712 7.97204C4.16153 8.21834 4.25124 8.4573 4.41755 8.63906L10.1905 14.4241C10.37 14.604 10.6135 14.7053 10.8676 14.7057C11.1217 14.7061 11.3656 14.6055 11.5455 14.4261C11.7255 14.2466 11.8268 14.0031 11.8272 13.749C11.8276 13.4949 11.727 13.251 11.5475 13.0711L6.47955 7.99906Z" fill="black"/>
</svg>
