<svg width="20" height="21" viewBox="0 0 20 21" fill="none" xmlns="http://www.w3.org/2000/svg">
<path d="M9.99999 0.799805C8.08151 0.799805 6.20612 1.3687 4.61096 2.43455C3.0158 3.5004 1.77253 5.01533 1.03836 6.78778C0.304191 8.56022 0.112098 10.5106 0.486375 12.3922C0.860652 14.2738 1.78449 16.0022 3.14106 17.3587C4.49763 18.7153 6.226 19.6391 8.10762 20.0134C9.98923 20.3877 11.9396 20.1956 13.712 19.4614C15.4845 18.7273 16.9994 17.484 18.0652 15.8888C19.1311 14.2937 19.7 12.4183 19.7 10.4998C19.7 7.9272 18.678 5.45997 16.8589 3.64087C15.0398 1.82177 12.5726 0.799805 9.99999 0.799805ZM2.23999 10.4998C2.23863 9.04781 2.64509 7.62461 3.41308 6.39234C4.18107 5.16007 5.27971 4.16826 6.58385 3.52989C7.88799 2.89153 9.34521 2.63227 10.7895 2.78165C12.2338 2.93102 13.6071 3.48304 14.753 4.3748L3.87499 15.2528C2.8158 13.8948 2.24037 12.222 2.23999 10.4998ZM9.99999 18.2598C8.27789 18.2597 6.60512 17.6846 5.24699 16.6258L16.126 5.7468C17.0178 6.89276 17.5698 8.26616 17.7192 9.71054C17.8685 11.1549 17.6092 12.6122 16.9707 13.9164C16.3322 15.2206 15.3402 16.3192 14.1078 17.0871C12.8754 17.855 11.4521 18.2614 9.99999 18.2598Z" fill="#FAFAFA"/>
</svg>
