<svg width="21" height="21" viewBox="0 0 21 21" fill="none" xmlns="http://www.w3.org/2000/svg">
<path d="M17.5 20.833H17.434C12.9436 20.5604 8.70836 18.6536 5.52735 15.4726C2.34635 12.2916 0.439627 8.05635 0.166992 3.566C0.166992 3.544 0.166992 3.522 0.166992 3.5C0.166992 2.63805 0.509402 1.8114 1.1189 1.2019C1.72839 0.59241 2.55504 0.25 3.41699 0.25H7.74999C7.96654 0.249925 8.17814 0.314771 8.35747 0.436164C8.53679 0.557556 8.67561 0.729921 8.75599 0.931L10.923 6.35C11.0186 6.58891 11.0261 6.85406 10.944 7.09796C10.8619 7.34185 10.6956 7.54854 10.475 7.681L8.66199 8.769C9.55717 10.2224 10.7806 11.4458 12.234 12.341L13.322 10.528C13.4544 10.3074 13.6611 10.1411 13.905 10.059C14.1489 9.97693 14.4141 9.98436 14.653 10.08L20.067 12.244C20.2684 12.3241 20.4412 12.4627 20.563 12.6421C20.6848 12.8215 20.7499 13.0332 20.75 13.25V17.583C20.7489 18.4446 20.4062 19.2707 19.7969 19.8799C19.1877 20.4892 18.3616 20.8319 17.5 20.833ZM2.33399 3.472C2.58656 7.41884 4.26844 11.1385 7.06499 13.935C9.86153 16.7315 13.5812 18.4134 17.528 18.666C17.8102 18.6582 18.0782 18.5407 18.2752 18.3385C18.4722 18.1363 18.5826 17.8653 18.583 17.583V13.983L14.704 12.431L13.554 14.35C13.4141 14.5832 13.1917 14.7552 12.9308 14.8319C12.67 14.9086 12.3898 14.8843 12.146 14.764C9.58192 13.4928 7.506 11.4151 6.23699 8.85C6.11899 8.60704 6.09604 8.32876 6.17263 8.06976C6.24923 7.81075 6.41984 7.58971 6.65099 7.45L8.56699 6.296L7.01699 2.417H3.41699C3.13455 2.41691 2.86324 2.52716 2.66093 2.72424C2.45861 2.92133 2.34129 3.18965 2.33399 3.472Z" fill="#959595"/>
</svg>
