<svg width="26" height="26" viewBox="0 0 26 26" fill="none" xmlns="http://www.w3.org/2000/svg">
<g clip-path="url(#clip0_13359_4080)">
<g clip-path="url(#clip1_13359_4080)">
<path d="M19.5 23.833H19.434C14.9436 23.5604 10.7084 21.6536 7.52735 18.4726C4.34635 15.2916 2.43963 11.0564 2.16699 6.566C2.16699 6.544 2.16699 6.522 2.16699 6.5C2.16699 5.63805 2.5094 4.8114 3.1189 4.2019C3.72839 3.59241 4.55504 3.25 5.41699 3.25H9.74999C9.96654 3.24993 10.1781 3.31477 10.3575 3.43616C10.5368 3.55756 10.6756 3.72992 10.756 3.931L12.923 9.35C13.0186 9.58891 13.0261 9.85406 12.944 10.098C12.8619 10.3419 12.6956 10.5485 12.475 10.681L10.662 11.769C11.5572 13.2224 12.7806 14.4458 14.234 15.341L15.322 13.528C15.4544 13.3074 15.6611 13.1411 15.905 13.059C16.1489 12.9769 16.4141 12.9844 16.653 13.08L22.067 15.244C22.2684 15.3241 22.4412 15.4627 22.563 15.6421C22.6848 15.8215 22.7499 16.0332 22.75 16.25V20.583C22.7489 21.4446 22.4062 22.2707 21.7969 22.8799C21.1877 23.4892 20.3616 23.8319 19.5 23.833ZM4.33399 6.472C4.58656 10.4188 6.26844 14.1385 9.06499 16.935C11.8615 19.7315 15.5812 21.4134 19.528 21.666C19.8102 21.6582 20.0782 21.5407 20.2752 21.3385C20.4722 21.1363 20.5826 20.8653 20.583 20.583L21.106 21.438L19.151 22.879L17.093 22.467C16.803 22.95 14.739 21.43 14.233 21.181C11.681 19.922 6.15699 16.081 4.89799 13.526C4.64899 13.02 4.41499 10.665 4.89799 10.375L3.81899 5.734L5.41899 4.767V5.417C5.1362 5.41638 4.86439 5.5264 4.66164 5.72354C4.4589 5.92068 4.3413 6.1893 4.33399 6.472Z" fill="#1F83F4"/>
</g>
</g>
<defs>
<clipPath id="clip0_13359_4080">
<rect width="26" height="26" fill="white"/>
</clipPath>
<clipPath id="clip1_13359_4080">
<rect width="26" height="26" fill="white"/>
</clipPath>
</defs>
</svg>
