<svg width="24" height="24" viewBox="0 0 24 24" fill="none" xmlns="http://www.w3.org/2000/svg">
<path d="M22.456 17.1679L19.372 14.0839C19.1272 13.8318 18.8218 13.6469 18.4851 13.5468C18.1483 13.4467 17.7915 13.4347 17.4488 13.5121C17.1061 13.5895 16.789 13.7536 16.528 13.9887C16.2669 14.2239 16.0707 14.5221 15.958 14.8549C15.782 15.3308 15.4396 15.7268 14.9942 15.9699C14.5488 16.2129 14.0304 16.2864 13.535 16.1769C11.335 15.6259 8.35898 12.7629 7.80798 10.4499C7.67483 9.95348 7.73786 9.4249 7.984 8.97375C8.23015 8.52261 8.64052 8.18353 9.12998 8.02686C9.46274 7.91417 9.76098 7.71789 9.9961 7.45685C10.2312 7.1958 10.3953 6.87873 10.4727 6.53604C10.5501 6.19335 10.5382 5.83652 10.4381 5.49976C10.338 5.16301 10.153 4.85761 9.90098 4.61286L6.81698 1.52886C6.41125 1.15698 5.88086 0.950684 5.33048 0.950684C4.78011 0.950684 4.24972 1.15698 3.84398 1.52886L1.75098 3.62186C-0.342016 5.82186 1.97098 11.6619 7.15098 16.8379C12.331 22.0139 18.164 24.4379 20.367 22.2379L22.46 20.1449C22.8325 19.7384 23.0387 19.2069 23.038 18.6556C23.0373 18.1043 22.8295 17.5733 22.456 17.1679Z" fill="#1F83F4"/>
</svg>
