<svg width="22" height="19" viewBox="0 0 22 19" fill="none" xmlns="http://www.w3.org/2000/svg">
<g clip-path="url(#clip0_5_178)">
<path d="M19.98 2.72501H17.1C16.9209 2.72537 16.7434 2.69021 16.5779 2.62155C16.4125 2.55289 16.2623 2.4521 16.136 2.32501L14.476 0.665013C14.2656 0.453384 14.0154 0.285626 13.7397 0.171471C13.464 0.0573167 13.1684 -0.000962978 12.87 1.20345e-05H8.926C8.62761 -0.000962978 8.332 0.0573167 8.05632 0.171471C7.78063 0.285626 7.53035 0.453384 7.32 0.665013L5.66 2.32501C5.53374 2.4521 5.38353 2.55289 5.21806 2.62155C5.05259 2.69021 4.87515 2.72537 4.696 2.72501H1.816C1.33453 2.72554 0.87293 2.91704 0.532479 3.25749C0.192027 3.59794 0.00052938 4.05954 0 4.54101V16.347C0.00052938 16.8285 0.192027 17.2901 0.532479 17.6305C0.87293 17.971 1.33453 18.1625 1.816 18.163H19.98C20.2187 18.1633 20.4552 18.1165 20.6759 18.0254C20.8965 17.9343 21.0971 17.8006 21.2661 17.6319C21.4351 17.4633 21.5692 17.2631 21.6608 17.0426C21.7525 16.8221 21.7997 16.5858 21.8 16.347V4.54101C21.7997 4.30227 21.7525 4.06591 21.6608 3.84544C21.5692 3.62497 21.4351 3.42471 21.2661 3.25608C21.0971 3.08745 20.8965 2.95375 20.6759 2.86263C20.4552 2.77151 20.2187 2.72475 19.98 2.72501ZM11.318 15.159C11.2836 15.2419 11.2255 15.3127 11.1509 15.3625C11.0763 15.4123 10.9887 15.4389 10.899 15.439C9.62661 15.4397 8.39414 14.9949 7.41543 14.1818C6.43673 13.3687 5.77355 12.2386 5.54096 10.9877C5.30837 9.73674 5.52106 8.44384 6.14212 7.33332C6.76317 6.22279 7.75341 5.36473 8.941 4.90801C9.05345 4.86465 9.17852 4.86773 9.2887 4.91659C9.39888 4.96544 9.48514 5.05606 9.5285 5.16851C9.57186 5.28096 9.56878 5.40604 9.51993 5.51621C9.47107 5.62639 9.38045 5.71265 9.268 5.75601C8.42584 6.07781 7.69865 6.64321 7.17921 7.38007C6.65977 8.11694 6.37163 8.99185 6.35157 9.89317C6.3315 10.7945 6.58042 11.6814 7.06655 12.4406C7.55269 13.1999 8.254 13.7971 9.081 14.156V13.623C9.08101 13.5332 9.10764 13.4455 9.15753 13.3708C9.20742 13.2962 9.27832 13.238 9.36127 13.2036C9.44422 13.1693 9.5355 13.1603 9.62356 13.1778C9.71162 13.1953 9.79251 13.2385 9.856 13.302L11.218 14.664C11.2818 14.7273 11.3254 14.8082 11.3432 14.8963C11.361 14.9844 11.3522 15.0759 11.318 15.159ZM12.88 15.059C12.8245 15.0807 12.7652 15.0913 12.7055 15.0901C12.6459 15.089 12.5871 15.0761 12.5324 15.0521C12.4778 15.0282 12.4284 14.9938 12.387 14.9508C12.3457 14.9078 12.3132 14.8571 12.2915 14.8015C12.2698 14.746 12.2592 14.6867 12.2604 14.627C12.2615 14.5674 12.2745 14.5086 12.2984 14.4539C12.3223 14.3993 12.3567 14.3499 12.3997 14.3085C12.4427 14.2672 12.4935 14.2347 12.549 14.213C13.3862 13.8868 14.1078 13.3194 14.6221 12.5827C15.1365 11.846 15.4205 10.9731 15.4382 10.0747C15.4559 9.17638 15.2064 8.29301 14.7214 7.53661C14.2364 6.78021 13.5378 6.18486 12.714 5.82601V6.35501C12.714 6.4448 12.6874 6.53256 12.6375 6.60721C12.5876 6.68186 12.5167 6.74005 12.4337 6.7744C12.3508 6.80876 12.2595 6.81775 12.1714 6.80024C12.0834 6.78273 12.0025 6.73949 11.939 6.67601L10.577 5.31401C10.5135 5.25052 10.4703 5.16963 10.4528 5.08157C10.4353 4.99351 10.4443 4.90223 10.4786 4.81928C10.513 4.73633 10.5711 4.66543 10.6458 4.61554C10.7204 4.56565 10.8082 4.53902 10.898 4.53901C12.1688 4.53758 13.4 4.9805 14.3787 5.7911C15.3574 6.60171 16.0218 7.72899 16.257 8.9778C16.4922 10.2266 16.2834 11.5184 15.6667 12.6295C15.05 13.7406 14.0642 14.6011 12.88 15.062V15.059ZM18.164 7.25901C17.9844 7.25901 17.8089 7.20576 17.6595 7.10599C17.5102 7.00622 17.3938 6.8644 17.3251 6.69849C17.2564 6.53257 17.2384 6.35001 17.2734 6.17387C17.3085 5.99774 17.395 5.83594 17.5219 5.70896C17.6489 5.58197 17.8107 5.49549 17.9869 5.46046C18.163 5.42542 18.3456 5.44341 18.5115 5.51213C18.6774 5.58086 18.8192 5.69723 18.919 5.84655C19.0187 5.99587 19.072 6.17143 19.072 6.35101C19.0727 6.47072 19.0497 6.58938 19.0043 6.70018C18.959 6.81097 18.8923 6.91173 18.8079 6.99665C18.7235 7.08158 18.6232 7.149 18.5127 7.19506C18.4022 7.24111 18.2837 7.26488 18.164 7.26501V7.25901Z" fill="#FAFAFA"/>
</g>
<defs>
<clipPath id="clip0_5_178">
<rect width="21.796" height="18.164" fill="white"/>
</clipPath>
</defs>
</svg>
