<svg width="20" height="20" viewBox="0 0 20 20" fill="none" xmlns="http://www.w3.org/2000/svg">
<path d="M14.219 2.77907L13.085 1.30907C12.8591 1.01857 12.5702 0.783246 12.2399 0.620911C11.9097 0.458576 11.5469 0.373482 11.179 0.37207L8.07896 0.37207C7.71084 0.373331 7.34783 0.458351 7.01743 0.620692C6.68703 0.783033 6.39791 1.01844 6.17196 1.30907L5.03796 2.77907H14.219Z" fill="#404040"/>
<path d="M9.56799 14.998C11.501 14.998 13.068 13.431 13.068 11.498C13.068 9.56505 11.501 7.99805 9.56799 7.99805C7.635 7.99805 6.06799 9.56505 6.06799 11.498C6.06799 13.431 7.635 14.998 9.56799 14.998Z" fill="#404040"/>
<path d="M15.245 4.38428H4.012C2.94836 4.3856 1.92866 4.80872 1.17655 5.56083C0.42444 6.31294 0.0013231 7.33263 0 8.39628L0 15.6173C0.0013231 16.6809 0.42444 17.7006 1.17655 18.4527C1.92866 19.2048 2.94836 19.628 4.012 19.6293H15.245C16.3086 19.628 17.3283 19.2048 18.0805 18.4527C18.8326 17.7006 19.2557 16.6809 19.257 15.6173V8.39628C19.2557 7.33263 18.8326 6.31294 18.0805 5.56083C17.3283 4.80872 16.3086 4.3856 15.245 4.38428ZM9.629 16.4203C8.67688 16.4203 7.74614 16.1379 6.95448 15.609C6.16283 15.08 5.5458 14.3282 5.18144 13.4485C4.81708 12.5689 4.72175 11.6009 4.9075 10.6671C5.09325 9.73329 5.55174 8.87552 6.22499 8.20227C6.89824 7.52902 7.75601 7.07053 8.68984 6.88478C9.62366 6.69903 10.5916 6.79436 11.4712 7.15872C12.3509 7.52308 13.1027 8.1401 13.6317 8.93176C14.1607 9.72342 14.443 10.6542 14.443 11.6063C14.443 12.883 13.9358 14.1075 13.033 15.0103C12.1302 15.9131 10.9058 16.4203 9.629 16.4203Z" fill="#404040"/>
</svg>
