<svg width="30" height="27" viewBox="0 0 30 27" fill="none" xmlns="http://www.w3.org/2000/svg">
<path d="M28.114 6.0319L22.664 5.7679L22.348 2.2139C22.3288 2.03489 22.2743 1.86146 22.1876 1.70362C22.101 1.54578 21.984 1.40666 21.8434 1.29426C21.7027 1.18187 21.5412 1.09844 21.3681 1.04877C21.1951 0.999106 21.0139 0.984195 20.835 1.0049L1.28604 2.6099C1.10725 2.61841 0.931951 2.66246 0.770364 2.73945C0.608777 2.81644 0.464142 2.92484 0.344897 3.05833C0.225653 3.19182 0.134187 3.34771 0.0758363 3.51693C0.017486 3.68614 -0.00658019 3.86528 0.005042 4.0439L1.40504 19.6209C1.42482 19.7997 1.47967 19.9728 1.56645 20.1304C1.65323 20.288 1.77023 20.4269 1.91077 20.5392C2.05131 20.6515 2.21262 20.735 2.38546 20.7849C2.5583 20.8348 2.73928 20.8501 2.91804 20.8299L3.90904 20.7509L3.74804 23.7759C3.7411 23.9755 3.77411 24.1746 3.84512 24.3613C3.91614 24.548 4.02373 24.7186 4.16159 24.8632C4.29946 25.0078 4.4648 25.1233 4.64794 25.2031C4.83107 25.2829 5.0283 25.3254 5.22804 25.3279L27.035 26.3649C27.2347 26.3816 27.4357 26.3585 27.6264 26.297C27.8171 26.2355 27.9937 26.1368 28.1461 26.0066C28.2984 25.8764 28.4234 25.7173 28.5138 25.5385C28.6043 25.3597 28.6584 25.1647 28.673 24.9649L29.591 7.5709C29.5972 7.37233 29.5636 7.17455 29.4923 6.98912C29.4211 6.80369 29.3135 6.63436 29.1759 6.49103C29.0384 6.3477 28.8736 6.23326 28.6913 6.15443C28.5089 6.07559 28.3127 6.03393 28.114 6.0319ZM4.66904 6.3819L4.20004 15.2869L3.04804 16.9189L1.98004 5.1599V5.0979C2.00049 4.93817 2.07419 4.79 2.18923 4.67732C2.30427 4.56465 2.45393 4.49403 2.61404 4.4769L19.856 3.0589C20.0162 3.04223 20.1768 3.08678 20.3056 3.1836C20.4343 3.28042 20.5216 3.42235 20.55 3.5809C20.55 3.5939 20.57 3.5939 20.57 3.6069C20.57 3.6199 20.59 3.6199 20.59 3.6329L20.768 5.6679L6.30004 4.9749C5.89723 4.94543 5.4992 5.07706 5.19338 5.34088C4.88756 5.6047 4.69897 5.97912 4.66904 6.3819ZM26.734 22.0319L21.134 15.4589L18.663 17.7249L14.092 12.3869L5.98304 21.0219L6.67004 7.8689V7.8429C6.70802 7.66599 6.80827 7.50861 6.95253 7.39941C7.09679 7.2902 7.27547 7.23644 7.45604 7.2479L26.693 8.1729C26.872 8.1761 27.043 8.24774 27.1707 8.3731C27.2985 8.49846 27.3734 8.66801 27.38 8.8469C27.38 8.8599 27.4 8.8669 27.4 8.8799L26.734 22.0319Z" fill="black"/>
<path d="M23.2519 13.6819C23.67 13.6819 24.0788 13.5579 24.4264 13.3256C24.7741 13.0933 25.045 12.7631 25.205 12.3769C25.365 11.9906 25.4069 11.5655 25.3253 11.1554C25.2438 10.7454 25.0424 10.3687 24.7468 10.073C24.4511 9.77739 24.0744 9.57605 23.6644 9.49448C23.2543 9.41291 22.8292 9.45477 22.4429 9.61478C22.0567 9.77478 21.7265 10.0457 21.4942 10.3934C21.2619 10.741 21.1379 11.1497 21.1379 11.5679C21.1395 12.128 21.3628 12.6648 21.7589 13.0609C22.155 13.457 22.6918 13.6803 23.2519 13.6819Z" fill="black"/>
</svg>
