<svg width="22" height="20" viewBox="0 0 22 20" fill="none" xmlns="http://www.w3.org/2000/svg">
<path d="M1.22002 19.7981C1.04761 19.798 0.877706 19.7568 0.724303 19.6782C0.570899 19.5995 0.438392 19.4855 0.337702 19.3455C0.237012 19.2056 0.171023 19.0437 0.145173 18.8732C0.119323 18.7028 0.134352 18.5286 0.189022 18.3651L1.43802 14.6091C0.243024 12.5804 -0.127754 10.1704 0.402177 7.87636C0.932107 5.58229 2.32232 3.57911 4.28602 2.28008C6.25926 0.904641 8.60872 0.171307 11.014 0.180085C13.7468 0.157353 16.3982 1.1097 18.492 2.86609C19.4336 3.62811 20.2139 4.57003 20.7876 5.63687C21.3612 6.70372 21.7166 7.87413 21.8331 9.0798C21.9495 10.2855 21.8247 11.5023 21.4658 12.6592C21.107 13.8161 20.5213 14.8899 19.743 15.8181C18.6818 17.0921 17.3392 18.1023 15.821 18.7691C14.3045 19.4355 12.6659 19.7791 11.0094 19.7781C9.35289 19.777 7.71473 19.4314 6.19902 18.7631L1.44602 19.7761C1.37167 19.7913 1.29592 19.7987 1.22002 19.7981ZM6.32702 16.5311C6.49157 16.5309 6.654 16.5682 6.80202 16.6401C8.11435 17.2719 9.5525 17.5991 11.009 17.5971C12.3451 17.6159 13.6691 17.3421 14.8882 16.795C16.1073 16.2479 17.1919 15.4407 18.066 14.4301C18.671 13.7228 19.1266 12.9004 19.4055 12.0124C19.6843 11.1244 19.7807 10.1891 19.6886 9.26294C19.5966 8.33675 19.3182 7.43874 18.87 6.62297C18.4219 5.80721 17.8134 5.09053 17.081 4.51609C15.3796 3.09716 13.2283 2.331 11.013 2.35509C9.05821 2.34547 7.14802 2.93913 5.54302 4.05508C4.75565 4.55616 4.07708 5.21046 3.54766 5.97906C3.01824 6.74766 2.64879 7.61488 2.46127 8.52914C2.27376 9.4434 2.27201 10.386 2.45612 11.301C2.64024 12.2159 3.00647 13.0845 3.53302 13.8551C3.62639 13.9935 3.68676 14.1515 3.70947 14.3168C3.73218 14.4822 3.71663 14.6506 3.66402 14.8091L2.85202 17.2501L6.10202 16.5571C6.17598 16.5413 6.25139 16.5332 6.32702 16.5331V16.5311Z" fill="#959595"/>
</svg>
