<svg width="26" height="26" viewBox="0 0 26 26" fill="none" xmlns="http://www.w3.org/2000/svg">
<path d="M6.821 5.91C8.76186 4.56541 11.0882 3.8903 13.4473 3.98702C15.8065 4.08375 18.0697 4.94703 19.894 6.446C20.7616 7.14431 21.4809 8.00892 22.0098 8.98906C22.5386 9.96919 22.8663 11.0451 22.9736 12.1536C23.0809 13.2622 22.9657 14.381 22.6347 15.4443C22.3037 16.5077 21.7635 17.4942 21.046 18.346C19.5608 20.0397 17.5794 21.2221 15.3837 21.7251C13.1879 22.2281 10.8894 22.0262 8.815 21.148L8.583 21.048L4.208 21.979L4.133 21.992L4.023 22H3.91H3.866L3.756 21.98L3.651 21.946L3.551 21.902L3.475 21.86L3.367 21.783L3.286 21.7L3.213 21.617L3.16 21.542L3.1 21.427L3.058 21.321L3.027 21.208L3.014 21.133L3 21.023V20.91L3.005 20.866L3.025 20.756L3.047 20.684L4.2 17.233L4.179 17.2C3.11216 15.3819 2.76789 13.2292 3.21452 11.1691C3.66115 9.10894 4.86602 7.29204 6.59 6.079L6.82 5.911L6.821 5.91Z" fill="#1F83F4"/>
<path d="M6.821 5.91C8.76186 4.56541 11.0882 3.8903 13.4473 3.98702C15.8065 4.08375 18.0697 4.94703 19.894 6.446C20.7616 7.14431 21.4809 8.00892 22.0098 8.98906C22.5386 9.96919 22.8663 11.0451 22.9736 12.1536C23.0809 13.2622 22.9657 14.381 22.6347 15.4443C22.3037 16.5077 21.7635 17.4942 21.046 18.346C19.5608 20.0397 17.5794 21.2221 15.3837 21.7251C13.1879 22.2281 10.8894 22.0262 8.815 21.148L8.583 21.048L4.208 21.979L4.133 21.992L4.023 22H3.91H3.866L3.756 21.98L3.651 21.946L3.551 21.902L3.475 21.86L3.367 21.783L3.286 21.7L3.213 21.617L3.16 21.542L3.1 21.427L3.058 21.321L3.027 21.208L3.014 21.133L3 21.023V20.91L3.005 20.866L3.025 20.756L3.047 20.684L4.2 17.233L4.179 17.2C3.11216 15.3819 2.76789 13.2292 3.21452 11.1691C3.66115 9.10894 4.86602 7.29204 6.59 6.079L6.82 5.911L6.821 5.91Z" fill="#1F83F4"/>
</svg>
