<svg width="22" height="22" viewBox="0 0 22 22" fill="none" xmlns="http://www.w3.org/2000/svg">
<path d="M17.707 2.91398C16.4092 1.83927 14.8719 1.09267 13.2248 0.737235C11.5777 0.381805 9.86931 0.427986 8.24384 0.871878C6.61837 1.31577 5.1236 2.14433 3.8858 3.28758C2.64799 4.43083 1.7035 5.85519 1.1321 7.44034C0.56071 9.02549 0.379196 10.7249 0.602893 12.3949C0.82659 14.065 1.44893 15.6567 2.41734 17.0356C3.38575 18.4145 4.67179 19.5401 6.16684 20.3173C7.66188 21.0945 9.32201 21.5005 11.007 21.501H17.116C18.2756 21.4991 19.3871 21.0375 20.2068 20.2174C21.0266 19.3973 21.4877 18.2855 21.489 17.126V10.341C21.3964 8.91077 21.0131 7.51448 20.3625 6.23748C19.7118 4.96048 18.8076 3.82959 17.705 2.91398H17.707ZM7.489 6.62598H10.989C11.2211 6.62598 11.4436 6.71816 11.6077 6.88226C11.7718 7.04635 11.864 7.26891 11.864 7.50098C11.864 7.73304 11.7718 7.9556 11.6077 8.1197C11.4436 8.28379 11.2211 8.37598 10.989 8.37598H7.489C7.25693 8.37598 7.03437 8.28379 6.87028 8.1197C6.70618 7.9556 6.614 7.73304 6.614 7.50098C6.614 7.26891 6.70618 7.04635 6.87028 6.88226C7.03437 6.71816 7.25693 6.62598 7.489 6.62598ZM14.489 15.376H7.489C7.25693 15.376 7.03437 15.2838 6.87028 15.1197C6.70618 14.9556 6.614 14.733 6.614 14.501C6.614 14.2689 6.70618 14.0464 6.87028 13.8823C7.03437 13.7182 7.25693 13.626 7.489 13.626H14.489C14.7211 13.626 14.9436 13.7182 15.1077 13.8823C15.2718 14.0464 15.364 14.2689 15.364 14.501C15.364 14.733 15.2718 14.9556 15.1077 15.1197C14.9436 15.2838 14.7211 15.376 14.489 15.376ZM14.489 11.876H7.489C7.25693 11.876 7.03437 11.7838 6.87028 11.6197C6.70618 11.4556 6.614 11.233 6.614 11.001C6.614 10.7689 6.70618 10.5464 6.87028 10.3823C7.03437 10.2182 7.25693 10.126 7.489 10.126H14.489C14.7211 10.126 14.9436 10.2182 15.1077 10.3823C15.2718 10.5464 15.364 10.7689 15.364 11.001C15.364 11.233 15.2718 11.4556 15.1077 11.6197C14.9436 11.7838 14.7211 11.876 14.489 11.876Z" fill="#404040"/>
</svg>
