<svg width="17" height="17" viewBox="0 0 17 17" fill="none" xmlns="http://www.w3.org/2000/svg">
<path d="M17 8.45298C17 10.1246 16.5043 11.7587 15.5755 13.1487C14.6468 14.5386 13.3268 15.6219 11.7824 16.2616C10.238 16.9013 8.53858 17.0687 6.89905 16.7426C5.25952 16.4165 3.75352 15.6115 2.57148 14.4294C1.38945 13.2474 0.584476 11.7414 0.258354 10.1019C-0.0677684 8.46235 0.0996094 6.76294 0.739321 5.21854C1.37903 3.67413 2.46235 2.35411 3.85227 1.4254C5.2422 0.496678 6.8763 0.000976563 8.54795 0.000976562C10.7896 0.000976563 12.9394 0.891453 14.5244 2.47651C16.1095 4.06157 17 6.21137 17 8.45298ZM7.56995 12.928L13.841 6.65698C13.8916 6.60636 13.9318 6.54627 13.9592 6.48012C13.9866 6.41398 14.0007 6.34308 14.0007 6.27148C14.0007 6.19988 13.9866 6.12898 13.9592 6.06283C13.9318 5.99669 13.8916 5.93659 13.841 5.88598L13.07 5.11498C13.0193 5.06433 12.9592 5.02415 12.8931 4.99674C12.827 4.96933 12.7561 4.95522 12.6845 4.95522C12.6129 4.95522 12.542 4.96933 12.4758 4.99674C12.4097 5.02415 12.3496 5.06433 12.299 5.11498L7.18395 10.229L4.79695 7.83798C4.74634 7.78733 4.68624 7.74715 4.6201 7.71974C4.55395 7.69233 4.48305 7.67822 4.41145 7.67822C4.33985 7.67822 4.26895 7.69233 4.20281 7.71974C4.13666 7.74715 4.07656 7.78733 4.02595 7.83798L3.25495 8.60898C3.20431 8.65959 3.16413 8.71969 3.13672 8.78583C3.10931 8.85198 3.0952 8.92288 3.0952 8.99448C3.0952 9.06608 3.10931 9.13698 3.13672 9.20312C3.16413 9.26927 3.20431 9.32936 3.25495 9.37998L6.79895 12.928C6.84956 12.9786 6.90966 13.0188 6.97581 13.0462C7.04195 13.0736 7.11285 13.0877 7.18445 13.0877C7.25605 13.0877 7.32695 13.0736 7.3931 13.0462C7.45924 13.0188 7.51934 12.9786 7.56995 12.928Z" fill="#1F83F4"/>
</svg>
