<svg width="16" height="20" viewBox="0 0 16 20" fill="none" xmlns="http://www.w3.org/2000/svg">
<path d="M13.029 6.36101e-06H2.84201C2.46857 -0.000784546 2.09866 0.0721861 1.75349 0.21473C1.40833 0.357274 1.09471 0.566584 0.830653 0.830645C0.566592 1.09471 0.35728 1.40832 0.214736 1.75348C0.0721923 2.09865 -0.000776608 2.46857 1.42991e-05 2.84201V16.417C-0.00237831 17.1735 0.295575 17.9 0.828441 18.437C1.36131 18.974 2.08551 19.2776 2.84201 19.281H13.029C13.4025 19.2818 13.7724 19.2088 14.1175 19.0663C14.4627 18.9237 14.7763 18.7144 15.0404 18.4504C15.3044 18.1863 15.5137 17.8727 15.6563 17.5275C15.7988 17.1824 15.8718 16.8124 15.871 16.439V2.84201C15.8718 2.46857 15.7988 2.09865 15.6563 1.75348C15.5137 1.40832 15.3044 1.09471 15.0404 0.830645C14.7763 0.566584 14.4627 0.357274 14.1175 0.21473C13.7724 0.0721861 13.4025 -0.000784546 13.029 6.36101e-06ZM5.59601 5.37801H10.296C10.47 5.37801 10.6369 5.44712 10.7599 5.57014C10.8829 5.69317 10.952 5.86002 10.952 6.03401C10.952 6.20799 10.8829 6.37484 10.7599 6.49787C10.6369 6.62089 10.47 6.69001 10.296 6.69001H5.59601C5.42203 6.69001 5.25518 6.62089 5.13215 6.49787C5.00913 6.37484 4.94001 6.20799 4.94001 6.03401C4.94001 5.86002 5.00913 5.69317 5.13215 5.57014C5.25518 5.44712 5.42203 5.37801 5.59601 5.37801ZM11.958 13.9H3.89101C3.80442 13.9016 3.71838 13.8858 3.63806 13.8534C3.55773 13.821 3.48476 13.7727 3.42352 13.7115C3.36228 13.6503 3.31402 13.5773 3.28163 13.497C3.24924 13.4166 3.23339 13.3306 3.23501 13.244C3.23554 13.0702 3.30482 12.9036 3.42773 12.7807C3.55064 12.6578 3.71719 12.5885 3.89101 12.588H11.958C12.132 12.588 12.2989 12.6571 12.4219 12.7801C12.5449 12.9032 12.614 13.07 12.614 13.244C12.614 13.418 12.5449 13.5848 12.4219 13.7079C12.2989 13.8309 12.132 13.9 11.958 13.9ZM11.958 10.293H3.89101C3.80442 10.2946 3.71838 10.2788 3.63806 10.2464C3.55773 10.214 3.48476 10.1657 3.42352 10.1045C3.36228 10.0433 3.31402 9.97029 3.28163 9.88996C3.24924 9.80964 3.23339 9.7236 3.23501 9.63701C3.23554 9.46319 3.30482 9.29664 3.42773 9.17373C3.55064 9.05082 3.71719 8.98153 3.89101 8.98101H11.958C12.132 8.98101 12.2989 9.05012 12.4219 9.17314C12.5449 9.29617 12.614 9.46303 12.614 9.63701C12.614 9.81099 12.5449 9.97785 12.4219 10.1009C12.2989 10.2239 12.132 10.293 11.958 10.293Z" fill="#404040"/>
</svg>
