<svg width="24" height="24" viewBox="0 0 24 24" fill="none" xmlns="http://www.w3.org/2000/svg">
<path d="M7 7H6C5.46957 7 4.96086 7.21071 4.58579 7.58579C4.21071 7.96086 4 8.46957 4 9V18C4 18.5304 4.21071 19.0391 4.58579 19.4142C4.96086 19.7893 5.46957 20 6 20H15C15.5304 20 16.0391 19.7893 16.4142 19.4142C16.7893 19.0391 17 18.5304 17 18V17" stroke="black" stroke-width="2" stroke-linecap="round" stroke-linejoin="round"/>
<path d="M20.385 6.58511C20.58 6.39009 20.7347 6.15858 20.8402 5.90378C20.9458 5.64899 21.0001 5.3759 21.0001 5.10011C21.0001 4.82432 20.9458 4.55123 20.8402 4.29643C20.7347 4.04163 20.58 3.81012 20.385 3.61511C20.19 3.42009 19.9585 3.2654 19.7037 3.15986C19.4489 3.05432 19.1758 3 18.9 3C18.6242 3 18.3511 3.05432 18.0963 3.15986C17.8415 3.2654 17.61 3.42009 17.415 3.61511L9 12.0001V15.0001H12L20.385 6.58511Z" stroke="black" stroke-width="2" stroke-linecap="round" stroke-linejoin="round"/>
<path d="M16 5L19 8" stroke="black" stroke-width="2" stroke-linecap="round" stroke-linejoin="round"/>
</svg>
