<svg width="18" height="14" viewBox="0 0 18 14" fill="none" xmlns="http://www.w3.org/2000/svg">
<path d="M16.6495 0.631275C16.577 0.623804 16.504 0.623804 16.4315 0.631275H1.55751C1.46205 0.632548 1.3672 0.646675 1.27551 0.673274L8.95251 8.31827L16.6495 0.631275Z" fill="#404040"/>
<path d="M17.4355 1.36426L9.70051 9.06426C9.50142 9.26284 9.23171 9.37436 8.95051 9.37436C8.66932 9.37436 8.3996 9.26284 8.20051 9.06426L0.536512 1.42226C0.512972 1.509 0.500539 1.59838 0.499512 1.68826V12.3133C0.499643 12.4527 0.527243 12.5908 0.580734 12.7196C0.634226 12.8484 0.712563 12.9654 0.811271 13.0639C0.90998 13.1624 1.02713 13.2406 1.15603 13.2938C1.28492 13.347 1.42305 13.3744 1.56251 13.3743H16.4375C16.7193 13.3743 16.9895 13.2624 17.1888 13.0633C17.3881 12.8641 17.5002 12.594 17.5005 12.3123V1.68826C17.4959 1.57753 17.4739 1.46821 17.4355 1.36426ZM2.28951 12.3133H1.55151V11.5533L5.41351 7.72326L6.16251 8.47226L2.28951 12.3133ZM16.4265 12.3133H15.6825L11.8095 8.47426L12.5585 7.72526L16.4205 11.5553L16.4265 12.3133Z" fill="#404040"/>
</svg>
