<svg width="20" height="13" viewBox="0 0 20 13" fill="none" xmlns="http://www.w3.org/2000/svg">
<g clip-path="url(#clip0_38_966)">
<path d="M9.99997 0.204121C7.99173 0.200145 6.0284 0.798277 4.3635 1.92129C2.69859 3.04429 1.40856 4.64061 0.659973 6.50412C1.41286 8.36431 2.70406 9.95732 4.36809 11.079C6.03213 12.2007 7.9932 12.7999 9.99997 12.7999C12.0068 12.7999 13.9678 12.2007 15.6319 11.079C17.2959 9.95732 18.5871 8.36431 19.34 6.50412C18.5914 4.64061 17.3014 3.04429 15.6364 1.92129C13.9715 0.798277 12.0082 0.200145 9.99997 0.204121ZM9.99997 10.6991C9.17127 10.6902 8.36371 10.4364 7.67897 9.96952C6.99423 9.50266 6.46291 8.84365 6.15191 8.07546C5.84091 7.30727 5.76413 6.46424 5.93124 5.6525C6.09834 4.84077 6.50186 4.09662 7.09099 3.51373C7.68012 2.93084 8.42854 2.53528 9.242 2.37683C10.0555 2.21839 10.8976 2.30415 11.6625 2.62332C12.4273 2.94249 13.0806 3.48079 13.5402 4.17047C13.9997 4.86015 14.2449 5.67037 14.245 6.49912C14.236 7.61805 13.7844 8.68793 12.989 9.47494C12.1936 10.2619 11.1189 10.7021 9.99997 10.6991ZM9.99997 3.98212C9.50299 3.98784 9.01881 4.14045 8.60838 4.42074C8.19794 4.70104 7.87959 5.09648 7.69341 5.5573C7.50722 6.01812 7.46151 6.52372 7.56204 7.01046C7.66257 7.4972 7.90484 7.94332 8.25835 8.29267C8.61187 8.64203 9.06083 8.87899 9.54872 8.97375C10.0366 9.06851 10.5416 9.01681 11.0002 8.82518C11.4588 8.63355 11.8505 8.31054 12.1259 7.89681C12.4013 7.48309 12.5481 6.99713 12.548 6.50012C12.5422 5.82881 12.2709 5.18708 11.7935 4.7151C11.3161 4.24312 10.6713 3.97925 9.99997 3.98112V3.98212Z" fill="#FAFAFA"/>
</g>
<defs>
<clipPath id="clip0_38_966">
<rect width="18.68" height="12.592" fill="white" transform="translate(0.659973 0.204102)"/>
</clipPath>
</defs>
</svg>
