<svg width="23" height="23" viewBox="0 0 23 23" fill="none" xmlns="http://www.w3.org/2000/svg">
<path d="M16.126 11.429C16.8194 11.429 17.4973 11.2234 18.0738 10.8381C18.6504 10.4529 19.0998 9.90532 19.3651 9.26468C19.6305 8.62404 19.6999 7.9191 19.5646 7.23901C19.4293 6.55891 19.0954 5.9342 18.6051 5.44388C18.1148 4.95355 17.4901 4.61964 16.81 4.48436C16.1299 4.34908 15.4249 4.41851 14.7843 4.68387C14.1437 4.94923 13.5961 5.39861 13.2109 5.97516C12.8256 6.55172 12.62 7.22957 12.62 7.92299C12.62 8.85284 12.9894 9.74461 13.6469 10.4021C13.9724 10.7277 14.3589 10.9859 14.7843 11.1621C15.2097 11.3383 15.6656 11.429 16.126 11.429ZM18.58 12.306H18.123C17.4969 12.5948 16.8155 12.7444 16.126 12.7444C15.4365 12.7444 14.7551 12.5948 14.129 12.306H13.671C12.6948 12.3063 11.7587 12.6942 11.0684 13.3844C10.3782 14.0747 9.99026 15.0108 9.98999 15.987V17.127C9.98999 17.4758 10.1285 17.8102 10.3751 18.0568C10.6218 18.3035 10.9562 18.442 11.305 18.442H20.947C21.2957 18.442 21.6302 18.3035 21.8768 18.0568C22.1234 17.8102 22.262 17.4758 22.262 17.127V15.987C22.2617 15.0106 21.8737 14.0744 21.1832 13.3841C20.4927 12.6938 19.5563 12.306 18.58 12.306Z" fill="#1F83F4"/>
<path d="M10.126 11.43C11.1574 11.43 12.1657 11.1241 13.0233 10.5511C13.8809 9.97808 14.5493 9.16361 14.944 8.2107C15.3387 7.25778 15.442 6.20922 15.2408 5.19761C15.0396 4.186 14.5429 3.25677 13.8136 2.52744C13.0842 1.79811 12.155 1.30143 11.1434 1.10021C10.1318 0.898985 9.08322 1.00226 8.13031 1.39697C7.17739 1.79168 6.36292 2.4601 5.78989 3.3177C5.21686 4.17531 4.911 5.18357 4.911 6.215C4.91087 6.89988 5.04567 7.57808 5.3077 8.21085C5.56973 8.84362 5.95386 9.41857 6.43815 9.90286C6.92243 10.3871 7.49738 10.7713 8.13015 11.0333C8.76292 11.2953 9.44112 11.4301 10.126 11.43ZM13.776 12.73H13.1C12.1688 13.1595 11.1555 13.3818 10.13 13.3818C9.10452 13.3818 8.09123 13.1595 7.16 12.73H6.48C5.76033 12.7296 5.04764 12.871 4.38266 13.1462C3.71768 13.4214 3.11346 13.825 2.60453 14.3338C2.0956 14.8427 1.69194 15.4468 1.41662 16.1117C1.14131 16.7767 0.999737 17.4893 1 18.209V19.9C1 20.4188 1.20608 20.9163 1.5729 21.2831C1.93972 21.6499 2.43724 21.856 2.956 21.856H17.3C17.8181 21.8549 18.3146 21.6484 18.6805 21.2817C19.0465 20.915 19.252 20.4181 19.252 19.9V18.209C19.2517 16.7568 18.6747 15.3641 17.6478 14.3372C16.6209 13.3103 15.2282 12.7333 13.776 12.733V12.73Z" fill="#1F83F4" stroke="#FAFAFA"/>
</svg>
