<svg width="34" height="34" viewBox="0 0 34 34" fill="none" xmlns="http://www.w3.org/2000/svg">
<path d="M5.00738 21.0537L9.74358 21.0537C10.1255 21.0598 10.5026 20.9676 10.8386 20.786C11.1746 20.6044 11.4583 20.3395 11.6625 20.0166C11.8666 19.6938 11.9843 19.3239 12.0043 18.9425C12.0242 18.561 11.9458 18.1808 11.7765 17.8384C11.5461 17.338 11.5048 16.7709 11.6603 16.2423C11.8158 15.7138 12.1575 15.2594 12.6222 14.9634C14.7379 13.6962 19.2195 13.61 21.4186 14.9634C21.9025 15.242 22.2602 15.6966 22.4172 16.2325C22.5743 16.7683 22.5185 17.3441 22.2615 17.8399C22.0926 18.182 22.0145 18.5617 22.0345 18.9427C22.0545 19.3237 22.172 19.6932 22.3758 20.0158C22.5795 20.3383 22.8627 20.6032 23.1981 20.7849C23.5336 20.9666 23.9101 21.0592 24.2916 21.0537L29.0278 21.0537C29.6253 21.0279 30.1914 20.779 30.6142 20.3562C31.0371 19.9333 31.286 19.3672 31.3117 18.7697L31.3117 15.5566C31.2269 12.2573 24.9683 9.55116 17.0176 9.55116C9.06688 9.55116 2.72413 12.1731 2.72413 15.5559V18.7704C2.75003 19.3677 2.9989 19.9335 3.42161 20.3562C3.84432 20.7789 4.41014 21.0278 5.00738 21.0537Z" fill="white"/>
</svg>
