<svg width="24" height="24" viewBox="0 0 24 24" fill="none" xmlns="http://www.w3.org/2000/svg">
<path d="M21.318 5.89491L20.998 6.00491L19.292 6.16991L18.81 7.00391L18.46 6.88391L17.101 5.55691L16.901 4.86691L16.637 4.13091L15.783 3.30091L14.776 3.08691L14.753 3.58691L15.739 4.62991L16.222 5.24591L15.679 5.55291L15.237 5.41191L14.575 5.11191L14.597 4.53391L13.728 4.14691L13.44 5.50691L12.565 5.72191L12.652 6.48091L13.793 6.71891L13.993 5.50691L14.935 5.65791L15.373 5.93591H16.073L16.554 6.97891L17.828 8.37891L17.736 8.91991L16.709 8.77791L14.934 9.74991L13.655 11.4199L13.489 12.1559H13.03L12.175 11.7289L11.345 12.1559L11.552 13.1049L11.913 12.6539L12.548 12.6329L12.504 13.4859L13.03 13.6529L13.556 14.2929L14.414 14.0309L15.394 14.1989L16.533 14.5309L17.102 14.6029L18.066 15.7889L19.927 16.9749L18.727 19.4659L17.457 20.1059L16.971 21.5199L15.133 22.8499L14.933 23.6169C17.3482 22.9016 19.4601 21.4097 20.9415 19.3724C22.4229 17.3351 23.1911 14.8661 23.127 12.3479C23.1356 10.0706 22.5092 7.8359 21.318 5.89491Z" fill="#1F83F4"/>
<path d="M12.069 18.817L11.289 17.371L12.005 15.879L11.289 15.665L10.489 14.858L8.70799 14.458L8.11698 13.221V13.955H7.85699L6.31898 11.878V10.169L5.19398 8.34L3.40799 8.658H2.20799L1.60299 8.258L2.37499 7.646L1.60499 7.824C0.651421 9.44952 0.144354 11.2982 0.135138 13.1827C0.125921 15.0673 0.614882 16.9208 1.5525 18.5555C2.49012 20.1903 3.8431 21.5483 5.47441 22.4919C7.10571 23.4355 8.95742 23.9313 10.842 23.929C11.2914 23.925 11.7403 23.8939 12.186 23.836L12.074 22.536C12.074 22.536 12.566 20.609 12.566 20.544C12.566 20.479 12.069 18.817 12.069 18.817Z" fill="#1F83F4"/>
<path d="M4.10998 4.38108L6.00998 4.11608L6.88398 3.63508L7.86998 3.91908L9.45098 3.82808L9.99098 2.97908L10.778 3.10908L12.69 2.93008L13.217 2.34908L13.96 1.84908L15.011 2.00708L15.394 1.94908C13.244 0.932245 10.816 0.662581 8.49525 1.18289C6.17453 1.70319 4.09406 2.98366 2.58398 4.82108L4.10998 4.38108ZM11.29 1.99308L12.384 1.39108L13.084 1.79708L12.068 2.57108L11.097 2.67108L10.66 2.38708L11.29 1.99308ZM8.05098 2.08108L8.53398 2.28108L9.16598 2.08108L9.50998 2.68108L8.05098 3.06408L7.35098 2.65408C7.35098 2.65408 8.03499 2.20808 8.05098 2.08108Z" fill="#1F83F4"/>
</svg>
