<svg width="20" height="20" viewBox="0 0 20 20" fill="none" xmlns="http://www.w3.org/2000/svg">
<path d="M8.92403 10.4301C8.7005 10.2064 8.43509 10.029 8.14297 9.90796C7.85085 9.78691 7.53774 9.72461 7.22153 9.72461C6.90532 9.72461 6.59221 9.78691 6.30009 9.90796C6.00797 10.029 5.74256 10.2064 5.51903 10.4301L0.0300293 15.9181C0.103194 16.9246 0.55413 17.8663 1.29243 18.5544C2.03073 19.2424 3.00183 19.626 4.01103 19.6281H15.245C16.0308 19.6279 16.799 19.3955 17.453 18.9601L8.92403 10.4301Z" fill="#404040"/>
<path d="M14.449 5.99805C15.2774 5.99805 15.949 5.55033 15.949 4.99805C15.949 4.44576 15.2774 3.99805 14.449 3.99805C13.6205 3.99805 12.949 4.44576 12.949 4.99805C12.949 5.55033 13.6205 5.99805 14.449 5.99805Z" fill="#404040"/>
<path d="M15.245 0.37207H4.012C2.94836 0.373393 1.92866 0.79651 1.17655 1.54862C0.42444 2.30073 0.0013231 3.32043 0 4.38407L0 13.6841L4.384 9.29607C4.75655 8.9235 5.19884 8.62795 5.68562 8.42631C6.17239 8.22468 6.69412 8.12089 7.221 8.12089C7.74788 8.12089 8.26961 8.22468 8.75638 8.42631C9.24316 8.62795 9.68545 8.9235 10.058 9.29607L18.588 17.8261C19.0236 17.1717 19.256 16.4032 19.256 15.6171V4.38407C19.2547 3.3206 18.8317 2.30105 18.0798 1.54897C17.3279 0.796891 16.3085 0.373658 15.245 0.37207ZM14.445 8.39607C13.8101 8.39607 13.1895 8.20781 12.6616 7.85509C12.1337 7.50237 11.7223 7.00103 11.4793 6.41448C11.2364 5.82793 11.1728 5.18251 11.2967 4.55983C11.4205 3.93715 11.7263 3.36518 12.1752 2.91626C12.6241 2.46733 13.1961 2.16161 13.8188 2.03775C14.4414 1.91389 15.0869 1.97746 15.6734 2.22042C16.26 2.46337 16.7613 2.87481 17.114 3.40269C17.4667 3.93057 17.655 4.55119 17.655 5.18607C17.655 5.60778 17.5719 6.02536 17.4105 6.41495C17.249 6.80453 17.0124 7.15849 16.7141 7.45659C16.4158 7.75469 16.0617 7.9911 15.672 8.1523C15.2823 8.3135 14.8647 8.39633 14.443 8.39607H14.445Z" fill="#404040"/>
</svg>
