<svg width="17" height="20" viewBox="0 0 17 20" fill="none" xmlns="http://www.w3.org/2000/svg">
<path d="M8.009 0C5.8857 0.00211746 3.84996 0.846463 2.34847 2.34777C0.846982 3.84907 0.00238259 5.8847 0 8.008C0 10.07 1.6 13.297 4.746 17.6C5.12089 18.1137 5.61178 18.5316 6.17871 18.8197C6.74563 19.1077 7.37257 19.2579 8.0085 19.2579C8.64443 19.2579 9.27137 19.1077 9.83829 18.8197C10.4052 18.5316 10.8961 18.1137 11.271 17.6C14.42 13.3 16.017 10.071 16.017 8.008C16.0146 5.88488 15.1702 3.8494 13.6689 2.34812C12.1676 0.846844 10.1321 0.00238211 8.009 0ZM8.009 11.2C7.37412 11.2 6.7535 11.0117 6.22562 10.659C5.69774 10.3063 5.2863 9.80497 5.04335 9.21841C4.80039 8.63186 4.73682 7.98644 4.86068 7.36376C4.98454 6.74108 5.29026 6.16911 5.73919 5.72019C6.18811 5.27126 6.76008 4.96554 7.38276 4.84168C8.00544 4.71782 8.65086 4.78139 9.23741 5.02435C9.82396 5.2673 10.3253 5.67874 10.678 6.20662C11.0307 6.7345 11.219 7.35512 11.219 7.99C11.219 8.41154 11.136 8.82896 10.9747 9.21841C10.8133 9.60787 10.5769 9.96174 10.2788 10.2598C9.98074 10.5579 9.62687 10.7943 9.23741 10.9557C8.84796 11.117 8.43054 11.2 8.009 11.2Z" fill="#404040"/>
</svg>
