<svg width="24" height="24" viewBox="0 0 24 24" fill="none" xmlns="http://www.w3.org/2000/svg">
<path d="M19.655 2.76093C18.1719 1.53261 16.4149 0.679275 14.5325 0.273009C12.6501 -0.133257 10.6976 -0.0805215 8.83983 0.426761C6.9821 0.934043 5.27375 1.88097 3.85907 3.18756C2.44439 4.49415 1.36494 6.12201 0.711913 7.93365C0.0588805 9.74529 -0.148556 11.6875 0.107125 13.5962C0.362806 15.5049 1.0741 17.324 2.18091 18.8999C3.28772 20.4758 4.75755 21.7622 6.46623 22.6504C8.17491 23.5385 10.0723 24.0025 11.998 24.0029H18.98C20.3056 24.0013 21.5764 23.474 22.5138 22.5367C23.4511 21.5994 23.9784 20.3285 23.98 19.0029V11.2489C23.8742 9.61437 23.436 8.01858 22.6924 6.55914C21.9487 5.0997 20.9152 3.80729 19.655 2.76093ZM7.98 7.00293H11.98C12.2452 7.00293 12.4996 7.10829 12.6871 7.29582C12.8746 7.48336 12.98 7.73771 12.98 8.00293C12.98 8.26815 12.8746 8.5225 12.6871 8.71004C12.4996 8.89757 12.2452 9.00293 11.98 9.00293H7.98C7.71478 9.00293 7.46043 8.89757 7.27289 8.71004C7.08536 8.5225 6.98 8.26815 6.98 8.00293C6.98 7.73771 7.08536 7.48336 7.27289 7.29582C7.46043 7.10829 7.71478 7.00293 7.98 7.00293ZM15.98 17.0029H7.98C7.71478 17.0029 7.46043 16.8976 7.27289 16.71C7.08536 16.5225 6.98 16.2681 6.98 16.0029C6.98 15.7377 7.08536 15.4834 7.27289 15.2958C7.46043 15.1083 7.71478 15.0029 7.98 15.0029H15.98C16.2452 15.0029 16.4996 15.1083 16.6871 15.2958C16.8746 15.4834 16.98 15.7377 16.98 16.0029C16.98 16.2681 16.8746 16.5225 16.6871 16.71C16.4996 16.8976 16.2452 17.0029 15.98 17.0029ZM15.98 13.0029H7.98C7.71478 13.0029 7.46043 12.8976 7.27289 12.71C7.08536 12.5225 6.98 12.2681 6.98 12.0029C6.98 11.7377 7.08536 11.4834 7.27289 11.2958C7.46043 11.1083 7.71478 11.0029 7.98 11.0029H15.98C16.2452 11.0029 16.4996 11.1083 16.6871 11.2958C16.8746 11.4834 16.98 11.7377 16.98 12.0029C16.98 12.2681 16.8746 12.5225 16.6871 12.71C16.4996 12.8976 16.2452 13.0029 15.98 13.0029Z" fill="#1F83F4"/>
</svg>
