<svg width="20" height="24" viewBox="0 0 20 24" fill="none" xmlns="http://www.w3.org/2000/svg">
<g clip-path="url(#clip0_31_1121)">
<path d="M8.36954 9.85157C8.36954 10.0677 8.28367 10.275 8.13083 10.4279C7.97799 10.5807 7.77069 10.6666 7.55454 10.6666H3.53354C3.73175 12.2416 4.49806 13.6902 5.6886 14.7403C6.87915 15.7904 8.41205 16.3699 9.99954 16.3699C11.587 16.3699 13.1199 15.7904 14.3105 14.7403C15.501 13.6902 16.2673 12.2416 16.4655 10.6666H12.4455C12.2293 10.6666 12.0218 10.5807 11.8689 10.4277C11.716 10.2748 11.63 10.0674 11.63 9.85107C11.63 9.63479 11.716 9.42736 11.8689 9.27443C12.0218 9.12149 12.2293 9.03557 12.4455 9.03557H16.5215V7.40557H12.4455C12.2293 7.40557 12.0218 7.31965 11.8689 7.16672C11.716 7.01378 11.63 6.80636 11.63 6.59007C11.63 6.37379 11.716 6.16636 11.8689 6.01343C12.0218 5.86049 12.2293 5.77457 12.4455 5.77457H16.4655C16.2673 4.19951 15.501 2.75095 14.3105 1.70084C13.1199 0.650733 11.587 0.0712891 9.99954 0.0712891C8.41205 0.0712891 6.87915 0.650733 5.6886 1.70084C4.49806 2.75095 3.73175 4.19951 3.53354 5.77457H7.55354C7.76982 5.77457 7.97725 5.86049 8.13018 6.01343C8.28312 6.16636 8.36904 6.37379 8.36904 6.59007C8.36904 6.80636 8.28312 7.01378 8.13018 7.16672C7.97725 7.31965 7.76982 7.40557 7.55354 7.40557H3.47754V9.03557H7.55354C7.66074 9.03544 7.7669 9.05646 7.86596 9.09742C7.96502 9.13838 8.05503 9.19848 8.13083 9.27428C8.20663 9.35008 8.26673 9.44009 8.30769 9.53915C8.34865 9.63821 8.36967 9.74438 8.36954 9.85157Z" fill="#404040"/>
<path d="M18.9686 9.85157C18.7524 9.85157 18.5451 9.93744 18.3923 10.0903C18.2394 10.2431 18.1536 10.4504 18.1536 10.6666C18.1515 12.6119 17.3778 14.477 16.0023 15.8526C14.6269 17.2283 12.7619 18.0022 10.8166 18.0046H9.18458C7.23915 18.0022 5.37408 17.2283 3.99846 15.8527C2.62283 14.4771 1.84896 12.612 1.84658 10.6666C1.84658 10.4503 1.76066 10.2429 1.60772 10.0899C1.45479 9.93699 1.24736 9.85107 1.03108 9.85107C0.814792 9.85107 0.607367 9.93699 0.454431 10.0899C0.301495 10.2429 0.215576 10.4503 0.215576 10.6666C0.218487 13.0441 1.16426 15.3235 2.84546 17.0047C4.52665 18.6859 6.80601 19.6317 9.18358 19.6346H10.8166C13.1941 19.6317 15.4735 18.6859 17.1547 17.0047C18.8359 15.3235 19.7817 13.0441 19.7846 10.6666C19.7846 10.5595 19.7635 10.4534 19.7224 10.3545C19.6814 10.2555 19.6213 10.1656 19.5455 10.0899C19.4697 10.0142 19.3798 9.95422 19.2808 9.91333C19.1818 9.87243 19.0757 9.85144 18.9686 9.85157Z" fill="#404040"/>
<path d="M9.86963 22.9308V19.8828" stroke="#404040" stroke-width="2" stroke-linecap="round"/>
</g>
<defs>
<clipPath id="clip0_31_1121">
<rect width="19.567" height="23.862" fill="white" transform="translate(0.216553 0.0688477)"/>
</clipPath>
</defs>
</svg>
