<svg width="24" height="24" viewBox="0 0 24 24" fill="none" xmlns="http://www.w3.org/2000/svg">
<path d="M10 13C10 13.3956 10.1173 13.7822 10.3371 14.1111C10.5568 14.44 10.8692 14.6964 11.2346 14.8478C11.6001 14.9991 12.0022 15.0387 12.3902 14.9616C12.7781 14.8844 13.1345 14.6939 13.4142 14.4142C13.6939 14.1345 13.8844 13.7781 13.9616 13.3902C14.0387 13.0022 13.9991 12.6001 13.8478 12.2346C13.6964 11.8692 13.44 11.5568 13.1111 11.3371C12.7822 11.1173 12.3956 11 12 11C11.4696 11 10.9609 11.2107 10.5858 11.5858C10.2107 11.9609 10 12.4696 10 13Z" stroke="#1F83F4" stroke-width="2" stroke-linecap="round" stroke-linejoin="round"/>
<path d="M8 21V20C8 19.4696 8.21071 18.9609 8.58579 18.5858C8.96086 18.2107 9.46957 18 10 18H14C14.5304 18 15.0391 18.2107 15.4142 18.5858C15.7893 18.9609 16 19.4696 16 20V21" stroke="#1F83F4" stroke-width="2" stroke-linecap="round" stroke-linejoin="round"/>
<path d="M15 5C15 5.39556 15.1173 5.78224 15.3371 6.11114C15.5568 6.44004 15.8692 6.69638 16.2346 6.84776C16.6001 6.99913 17.0022 7.03874 17.3902 6.96157C17.7781 6.8844 18.1345 6.69392 18.4142 6.41421C18.6939 6.13451 18.8844 5.77814 18.9616 5.39018C19.0387 5.00222 18.9991 4.60009 18.8478 4.23463C18.6964 3.86918 18.44 3.55682 18.1111 3.33706C17.7822 3.1173 17.3956 3 17 3C16.4696 3 15.9609 3.21071 15.5858 3.58579C15.2107 3.96086 15 4.46957 15 5Z" stroke="#1F83F4" stroke-width="2" stroke-linecap="round" stroke-linejoin="round"/>
<path d="M17 10H19C19.5304 10 20.0391 10.2107 20.4142 10.5858C20.7893 10.9609 21 11.4696 21 12V13" stroke="#1F83F4" stroke-width="2" stroke-linecap="round" stroke-linejoin="round"/>
<path d="M5 5C5 5.39556 5.1173 5.78224 5.33706 6.11114C5.55682 6.44004 5.86918 6.69638 6.23463 6.84776C6.60009 6.99913 7.00222 7.03874 7.39018 6.96157C7.77814 6.8844 8.13451 6.69392 8.41421 6.41421C8.69392 6.13451 8.8844 5.77814 8.96157 5.39018C9.03874 5.00222 8.99913 4.60009 8.84776 4.23463C8.69638 3.86918 8.44004 3.55682 8.11114 3.33706C7.78224 3.1173 7.39556 3 7 3C6.46957 3 5.96086 3.21071 5.58579 3.58579C5.21071 3.96086 5 4.46957 5 5Z" stroke="#1F83F4" stroke-width="2" stroke-linecap="round" stroke-linejoin="round"/>
<path d="M3 13V12C3 11.4696 3.21071 10.9609 3.58579 10.5858C3.96086 10.2107 4.46957 10 5 10H7" stroke="#1F83F4" stroke-width="2" stroke-linecap="round" stroke-linejoin="round"/>
</svg>
