<svg width="24" height="24" viewBox="0 0 24 24" fill="none" xmlns="http://www.w3.org/2000/svg">
<path d="M8 7C8 7.79113 8.2346 8.56448 8.67412 9.22228C9.11365 9.88008 9.73836 10.3928 10.4693 10.6955C11.2002 10.9983 12.0044 11.0775 12.7804 10.9231C13.5563 10.7688 14.269 10.3878 14.8284 9.82843C15.3878 9.26902 15.7688 8.55629 15.9231 7.78036C16.0775 7.00444 15.9983 6.20017 15.6955 5.46927C15.3928 4.73836 14.8801 4.11365 14.2223 3.67412C13.5645 3.2346 12.7911 3 12 3C10.9391 3 9.92172 3.42143 9.17157 4.17157C8.42143 4.92172 8 5.93913 8 7Z" stroke="#1F83F4" stroke-width="2" stroke-linecap="round" stroke-linejoin="round"/>
<path d="M16 19H22" stroke="#1F83F4" stroke-width="2" stroke-linecap="round" stroke-linejoin="round"/>
<path d="M19 16V22" stroke="#1F83F4" stroke-width="2" stroke-linecap="round" stroke-linejoin="round"/>
<path d="M6 21V19C6 17.9391 6.42143 16.9217 7.17157 16.1716C7.92172 15.4214 8.93913 15 10 15H14" stroke="#1F83F4" stroke-width="2" stroke-linecap="round" stroke-linejoin="round"/>
</svg>
