<svg width="16" height="22" viewBox="0 0 16 22" fill="none" xmlns="http://www.w3.org/2000/svg">
<path d="M13.091 8.09102H12.364V4.45502C12.3728 3.87644 12.2664 3.30189 12.051 2.76481C11.8357 2.22773 11.5156 1.73884 11.1096 1.32659C10.7035 0.914343 10.2195 0.586962 9.68578 0.363502C9.15202 0.140042 8.57915 0.0249634 8.0005 0.0249634C7.42185 0.0249634 6.84898 0.140042 6.31522 0.363502C5.78146 0.586962 5.29748 0.914343 4.89142 1.32659C4.48536 1.73884 4.16534 2.22773 3.94999 2.76481C3.73463 3.30189 3.62824 3.87644 3.637 4.45502V8.09102H2.909C2.13773 8.09182 1.39827 8.39855 0.852903 8.94393C0.307532 9.4893 0.00079417 10.2288 0 11V19C0.00079417 19.7713 0.307532 20.5107 0.852903 21.0561C1.39827 21.6015 2.13773 21.9082 2.909 21.909H13.091C13.8623 21.9082 14.6017 21.6015 15.1471 21.0561C15.6925 20.5107 15.9992 19.7713 16 19V11C15.9992 10.2288 15.6925 9.4893 15.1471 8.94393C14.6017 8.39855 13.8623 8.09182 13.091 8.09102ZM10.909 8.09102H5.091V4.45502C5.091 3.68351 5.39748 2.94359 5.94303 2.39805C6.48857 1.85251 7.22849 1.54602 8 1.54602C8.77151 1.54602 9.51143 1.85251 10.057 2.39805C10.6025 2.94359 10.909 3.68351 10.909 4.45502V8.09102Z" fill="#404040"/>
</svg>
