<svg width="17" height="14" viewBox="0 0 17 14" fill="none" xmlns="http://www.w3.org/2000/svg">
<path d="M15.516 2.77707L12.508 2.63107L12.333 0.670074C12.3229 0.570873 12.2933 0.47466 12.2457 0.387021C12.1981 0.299381 12.1336 0.222059 12.056 0.159543C11.9783 0.0970268 11.889 0.0505616 11.7932 0.0228433C11.6974 -0.00487504 11.5971 -0.0132943 11.498 -0.00192553L0.710005 0.889074C0.61137 0.893781 0.514658 0.918076 0.425508 0.960542C0.336359 1.00301 0.256555 1.0628 0.190749 1.13642C0.124942 1.21005 0.0744509 1.29603 0.0422176 1.38937C0.00998444 1.48271 -0.00334536 1.58153 0.00300494 1.68007L0.776005 10.2801C0.786949 10.3787 0.817241 10.4743 0.865147 10.5612C0.913052 10.6481 0.977631 10.7248 1.05519 10.7867C1.13274 10.8487 1.22176 10.8947 1.31713 10.9222C1.4125 10.9498 1.51237 10.9582 1.611 10.9471L2.158 10.8981L2.07 12.5681C2.06613 12.6783 2.08432 12.7882 2.12351 12.8913C2.16269 12.9944 2.22208 13.0886 2.29819 13.1685C2.3743 13.2483 2.46559 13.3121 2.5667 13.3562C2.66782 13.4003 2.77672 13.4237 2.887 13.4251L14.922 13.9971C15.0319 14.0058 15.1425 13.9927 15.2473 13.9585C15.3522 13.9243 15.4492 13.8697 15.5329 13.7979C15.6165 13.726 15.6852 13.6383 15.7348 13.5399C15.7844 13.4414 15.814 13.3341 15.822 13.2241L16.329 3.62407C16.3321 3.51487 16.3134 3.40614 16.274 3.30422C16.2347 3.2023 16.1754 3.10922 16.0998 3.0304C16.0241 2.95158 15.9336 2.8886 15.8333 2.84511C15.7331 2.80162 15.6252 2.77849 15.516 2.77707ZM2.577 2.97007L2.31801 7.88507L1.68 8.78507L1.093 2.29807V2.25907C1.10505 2.17119 1.14597 2.08979 1.20933 2.0277C1.27269 1.96561 1.35489 1.92634 1.443 1.91607L10.959 1.13607C11.0474 1.12685 11.136 1.15142 11.2071 1.20484C11.2781 1.25826 11.3263 1.33658 11.342 1.42407C11.342 1.43107 11.353 1.43107 11.353 1.43907C11.353 1.44707 11.364 1.44607 11.364 1.45407L11.464 2.57707L3.47701 2.19807C3.25544 2.18179 3.03643 2.25383 2.8678 2.39848C2.69918 2.54312 2.59463 2.74861 2.577 2.97007ZM14.754 11.6071L11.662 7.97907L10.298 9.23007L7.77501 6.28407L3.302 11.0501L3.68101 3.79107V3.77607C3.70211 3.67851 3.75751 3.59175 3.83715 3.53156C3.91679 3.47137 4.01538 3.44175 4.11501 3.44807L14.732 3.95807C14.8307 3.96004 14.9249 3.99966 14.9954 4.06881C15.0658 4.13796 15.1072 4.23143 15.111 4.33007C15.111 4.33707 15.122 4.34107 15.122 4.34807L14.754 11.6071Z" fill="#959595"/>
</svg>
