<svg width="32" height="33" viewBox="0 0 32 33" fill="none" xmlns="http://www.w3.org/2000/svg">
<path d="M9.68702 2.93807H1.93702V10.6881H9.68702V2.93807ZM11.629 1.00007V12.6251H2.36034e-05V1.00007H11.629ZM3.87502 4.87207H7.75002V8.75007H3.87502V4.87207ZM29.062 2.93807H21.312V10.6881H29.062V2.93807ZM31 1.00107V12.6251H19.375V1.00007H31V1.00107ZM23.25 4.87207H27.129V8.75007H23.25V4.87207ZM9.68702 22.3131H1.93702V30.0631H9.68702V22.3131ZM11.629 20.3721V32.0001H2.36034e-05V20.3721H11.629ZM3.87902 24.2471H7.75402V28.1221H3.87502L3.87902 24.2471ZM13.566 0.99707H15.504V2.93807H13.562L13.566 0.99707ZM15.504 2.93407H17.442V4.87207H15.5L15.504 2.93407ZM13.562 4.87207H15.5V6.81307H13.562V4.87207ZM15.5 6.80907H17.438V8.75007H15.5V6.80907ZM13.562 8.75007H15.5V10.6871H13.562V8.75007ZM15.5 10.6871H17.438V12.6241H15.5V10.6871ZM13.563 12.6241H15.501V14.5621H13.562L13.563 12.6241ZM13.563 16.4991H15.501V18.4371H13.562L13.563 16.4991ZM15.501 18.4371H17.439V20.3721H15.5L15.501 18.4371ZM13.562 20.3721H15.5V22.3101H13.562V20.3721ZM15.5 22.3101H17.438V24.2471H15.5V22.3101ZM13.563 24.2471H15.501V26.1851H13.562L13.563 24.2471ZM15.501 26.1851H17.439V28.1231H15.5L15.501 26.1851ZM13.564 28.1231H15.502V30.0611H13.562L13.564 28.1231ZM15.502 30.0611H17.44V31.9991H15.5L15.502 30.0611ZM29.062 16.5001H30.999V18.4381H29.062V16.5001ZM1.93702 16.5001H3.87502V18.4381H1.93702V16.5001ZM3.87402 14.5621H5.81202V16.5001H3.87502L3.87402 14.5621ZM-0.000976562 14.5621H1.93702V16.5001H2.36034e-05L-0.000976562 14.5621ZM7.74902 14.5621H9.68702V16.5001H7.75002L7.74902 14.5621ZM9.68702 16.5001H11.629V18.4381H9.68702V16.5001ZM11.629 14.5631H13.566V16.5011H11.629V14.5631ZM17.441 16.5011H19.379V18.4391H17.437L17.441 16.5011ZM19.379 14.5631H21.317V16.5011H19.375L19.379 14.5631ZM21.317 16.5011H23.255V18.4391H21.312L21.317 16.5011ZM23.255 14.5631H25.193V16.5011H23.25L23.255 14.5631ZM25.193 16.5011H27.129V18.4391H25.187L25.193 16.5011ZM27.129 14.5631H29.067V16.5011H27.129V14.5631ZM29.062 20.3721H30.999V22.3101H29.062V20.3721ZM17.437 20.3721H19.375V22.3101H17.437V20.3721ZM19.375 18.4351H21.313V20.3721H19.375V18.4351ZM21.312 20.3721H23.25V22.3101H21.312V20.3721ZM25.187 20.3721H27.129V22.3101H25.187V20.3721ZM27.129 18.4381H29.067V20.3721H27.129V18.4381ZM29.067 24.2501H31.004V26.1881H29.062L29.067 24.2501ZM17.442 24.2501H19.38V26.1881H17.437L17.442 24.2501ZM19.38 22.3131H21.318V24.2501H19.375L19.38 22.3131ZM23.255 22.3131H25.193V24.2501H23.25L23.255 22.3131ZM25.193 24.2501H27.129V26.1881H25.187L25.193 24.2501ZM27.129 22.3131H29.067V24.2501H27.129V22.3131ZM29.067 28.1251H31.004V30.0631H29.062L29.067 28.1251ZM19.38 26.1881H21.318V28.1261H19.375L19.38 26.1881ZM21.318 28.1261H23.256V30.0641H21.312L21.318 28.1261ZM23.256 26.1891H25.194V28.1271H23.25L23.256 26.1891ZM25.194 28.1271H27.129V30.0651H25.187L25.194 28.1271ZM19.382 30.0651H21.32V32.0031H19.375L19.382 30.0651ZM23.257 30.0651H25.195V32.0031H23.25L23.257 30.0651ZM27.132 30.0651H29.07V32.0031H27.129L27.132 30.0651Z" fill="black"/>
</svg>
