<svg width="22" height="21" viewBox="0 0 22 21" fill="none" xmlns="http://www.w3.org/2000/svg">
<path d="M19.711 0.753906H17.496C17.0851 0.754435 16.6911 0.917908 16.4006 1.20848C16.11 1.49904 15.9465 1.89298 15.946 2.30391V12.4919C15.9465 12.9028 16.11 13.2968 16.4006 13.5873C16.6911 13.8779 17.0851 14.0414 17.496 14.0419H19.711C20.1219 14.0414 20.5159 13.8779 20.8064 13.5873C21.097 13.2968 21.2605 12.9028 21.261 12.4919V2.30391C21.2605 1.89298 21.097 1.49904 20.8064 1.20848C20.5159 0.917908 20.1219 0.754435 19.711 0.753906Z" fill="#404040"/>
<path d="M4.53499 0.532829C3.6997 0.532183 2.89112 0.827094 2.25238 1.36536C1.61364 1.90362 1.18594 2.65051 1.04499 3.47383L0.0519935 9.23283C-0.036708 9.7419 -0.0129472 10.2642 0.121609 10.7631C0.256165 11.2621 0.498258 11.7255 0.830903 12.1209C1.16355 12.5164 1.57869 12.8342 2.0472 13.0522C2.51571 13.2702 3.02625 13.3831 3.54299 13.3828H7.72399C7.2534 14.5036 7.02704 15.7117 7.05999 16.9268C6.97834 17.7773 7.23454 18.6257 7.77323 19.2888C8.31192 19.9519 9.08986 20.3765 9.93899 20.4708C10.825 20.4708 11.268 20.0278 11.268 17.8128C11.268 15.7128 13.306 14.0128 14.618 13.1418V2.16183C11.8803 1.00119 8.92426 0.445524 5.95199 0.532829H4.53499Z" fill="#404040"/>
</svg>
