<svg width="22" height="22" viewBox="0 0 22 22" fill="none" xmlns="http://www.w3.org/2000/svg">
<path d="M21.33 17.4799L16.245 13.1659C16.176 13.1068 16.0952 13.0628 16.008 13.037C15.9207 13.0112 15.829 13.0041 15.7389 13.0162C15.6487 13.0283 15.5621 13.0593 15.4848 13.1071C15.4074 13.155 15.3411 13.2186 15.29 13.2939C14.7131 14.1129 13.9998 14.8267 13.181 15.4039C13.1063 15.4562 13.043 15.5233 12.9954 15.6011C12.9477 15.6788 12.9166 15.7656 12.904 15.8559C12.8925 15.945 12.8997 16.0355 12.9252 16.1216C12.9506 16.2077 12.9939 16.2875 13.052 16.3559L17.369 21.4449C17.5026 21.6092 17.6694 21.7434 17.8584 21.8386C18.0475 21.9338 18.2546 21.9879 18.4661 21.9973C18.6776 22.0068 18.8887 21.9714 19.0855 21.8934C19.2823 21.8154 19.4604 21.6967 19.608 21.5449L21.433 19.7199C21.5851 19.5723 21.7041 19.3941 21.7823 19.1971C21.8605 19.0001 21.896 18.7887 21.8866 18.577C21.8771 18.3652 21.8229 18.1579 21.7275 17.9686C21.6321 17.7794 21.4976 17.6125 21.333 17.4789L21.33 17.4799Z" fill="#1F83F4"/>
<path d="M8.07893 16.158C9.67681 16.158 11.2388 15.6842 12.5674 14.7964C13.896 13.9087 14.9315 12.6469 15.543 11.1707C16.1544 9.69446 16.3144 8.07004 16.0027 6.50287C15.691 4.9357 14.9215 3.49616 13.7916 2.36629C12.6618 1.23642 11.2222 0.466969 9.65507 0.155239C8.08789 -0.156491 6.46348 0.00350046 4.98723 0.614981C3.51099 1.22646 2.24922 2.26197 1.36149 3.59055C0.473757 4.91914 -6.79646e-05 6.48113 -6.79646e-05 8.079C-0.00711045 9.14192 0.197051 10.1956 0.600565 11.179C1.00408 12.1624 1.59891 13.0558 2.35052 13.8074C3.10213 14.559 3.99555 15.1539 4.97892 15.5574C5.96229 15.9609 7.01602 16.165 8.07893 16.158ZM2.61793 8.079C2.61853 6.99977 2.93906 5.94493 3.53902 5.04783C4.13898 4.15073 4.99143 3.45163 5.98863 3.0389C6.98583 2.62616 8.083 2.51833 9.14147 2.72902C10.1999 2.93972 11.1722 3.45948 11.9353 4.22262C12.6985 4.98575 13.2182 5.958 13.4289 7.01647C13.6396 8.07493 13.5318 9.17211 13.119 10.1693C12.7063 11.1665 12.0072 12.019 11.1101 12.6189C10.213 13.2189 9.15817 13.5394 8.07893 13.54C6.63107 13.5384 5.24297 12.9626 4.21918 11.9388C3.19538 10.915 2.61952 9.52686 2.61793 8.079Z" fill="#1F83F4"/>
</svg>
