<svg width="18" height="18" viewBox="0 0 18 18" fill="none" xmlns="http://www.w3.org/2000/svg">
<g clip-path="url(#clip0_27_8)">
<path d="M2.93998 12.2886C1.63976 10.9883 0.909302 9.22486 0.909302 7.38606C0.909302 5.54727 1.63976 3.78379 2.93998 2.48356C4.24021 1.18334 6.00369 0.452881 7.84248 0.452881C9.68128 0.452881 11.4448 1.18334 12.745 2.48356C13.835 3.55757 14.531 4.96785 14.7202 6.48636C14.9095 8.00488 14.5811 9.54284 13.788 10.8516C13.7564 10.906 13.7432 10.9692 13.7504 11.0317C13.7576 11.0942 13.7848 11.1528 13.828 11.1986L17.365 14.7356C17.5364 14.8689 17.6791 15.0353 17.7848 15.225C17.8904 15.4147 17.9567 15.6237 17.9798 15.8396C18.0028 16.0555 17.9821 16.2738 17.9189 16.4815C17.8558 16.6892 17.7514 16.8821 17.612 17.0486L17.504 17.1556C17.3376 17.2951 17.1447 17.3996 16.937 17.4628C16.7293 17.5261 16.5109 17.5468 16.295 17.5238C16.079 17.5007 15.87 17.4344 15.6803 17.3286C15.4906 17.2229 15.3242 17.0801 15.191 16.9086L11.661 13.3786C11.6148 13.3334 11.5554 13.3044 11.4914 13.2958C11.4275 13.2871 11.3624 13.2993 11.306 13.3306C9.99757 14.1233 8.46009 14.4516 6.94202 14.2625C5.42394 14.0734 4.01398 13.378 2.93998 12.2886ZM11.465 11.0086C12.1815 10.2921 12.6694 9.37927 12.867 8.3855C13.0647 7.39174 12.9633 6.36167 12.5755 5.42556C12.1878 4.48946 11.5311 3.68935 10.6887 3.12643C9.8462 2.56351 8.85572 2.26305 7.84248 2.26305C6.82925 2.26305 5.83877 2.56351 4.99629 3.12643C4.15382 3.68935 3.49719 4.48946 3.10945 5.42556C2.7217 6.36167 2.62025 7.39174 2.81792 8.3855C3.0156 9.37927 3.50352 10.2921 4.21998 11.0086C5.18151 11.9678 6.48427 12.5066 7.84248 12.5066C9.2007 12.5066 10.5035 11.9678 11.465 11.0086Z" fill="#404040"/>
<path d="M11.023 6.97568C11.1412 6.97561 11.2575 6.9463 11.3616 6.89035C11.4656 6.8344 11.5543 6.75356 11.6195 6.65504C11.6848 6.55652 11.7246 6.44338 11.7355 6.32571C11.7464 6.20804 11.728 6.08951 11.682 5.98068C11.2152 4.88237 10.3322 4.01383 9.22635 3.5653C8.12048 3.11677 6.88193 3.12481 5.78198 3.58768C5.69244 3.62222 5.61076 3.67441 5.54179 3.74115C5.47283 3.80789 5.41798 3.88781 5.38052 3.97617C5.34305 4.06452 5.32373 4.15951 5.3237 4.25548C5.32367 4.35146 5.34294 4.44645 5.38036 4.53483C5.41777 4.62321 5.47257 4.70316 5.5415 4.76994C5.61043 4.83672 5.69209 4.88895 5.78161 4.92355C5.87113 4.95814 5.96668 4.97439 6.06261 4.97132C6.15853 4.96825 6.25286 4.94593 6.33998 4.90568C7.09078 4.58907 7.9365 4.5832 8.69163 4.88933C9.44675 5.19547 10.0496 5.78862 10.368 6.53868C10.4225 6.66756 10.5136 6.77763 10.63 6.8553C10.7464 6.93297 10.883 6.97481 11.023 6.97568Z" fill="#404040"/>
</g>
<defs>
<clipPath id="clip0_27_8">
<rect width="17.087" height="17.087" fill="white" transform="translate(0.912994 0.456543)"/>
</clipPath>
</defs>
</svg>
