<svg width="14" height="14" viewBox="0 0 14 14" fill="none" xmlns="http://www.w3.org/2000/svg">
<path d="M13.166 5.54201L1.86604 0.120013C1.63513 0.00923898 1.37493 -0.0250828 1.12319 0.0220283C0.871449 0.0691393 0.641268 0.195234 0.46604 0.382014C0.270495 0.587689 0.129249 0.838825 0.0550502 1.11275C-0.0191486 1.38667 -0.0239636 1.67476 0.0410395 1.95101L1.04604 6.51201H5.97004C6.08347 6.52934 6.18695 6.58672 6.26171 6.67377C6.33648 6.76081 6.37758 6.87177 6.37758 6.98651C6.37758 7.10126 6.33648 7.21221 6.26171 7.29926C6.18695 7.38631 6.08347 7.44369 5.97004 7.46101H1.04804L0.0420395 12.022C-0.0226126 12.298 -0.017619 12.5857 0.0565707 12.8592C0.130761 13.1327 0.271817 13.3835 0.46704 13.589C0.642268 13.7758 0.872449 13.9019 1.12419 13.949C1.37593 13.9961 1.63613 13.9618 1.86704 13.851L13.167 8.42901C13.4206 8.28261 13.6311 8.07205 13.7775 7.81849C13.9239 7.56493 14.001 7.2773 14.001 6.98451C14.001 6.69173 13.9239 6.4041 13.7775 6.15054C13.6311 5.89698 13.4206 5.68642 13.167 5.54001L13.166 5.54201Z" fill="#1F83F4"/>
</svg>
