<svg width="26" height="26" viewBox="0 0 26 26" fill="none" xmlns="http://www.w3.org/2000/svg">
<path d="M15.647 5.08103C15.6738 5.19176 15.7264 5.2946 15.8005 5.38118C15.8745 5.46776 15.968 5.53563 16.0732 5.57929C16.1785 5.62294 16.2925 5.64114 16.4061 5.63241C16.5197 5.62368 16.6297 5.58826 16.727 5.52903C17.2486 5.21147 17.8618 5.07832 18.4681 5.15094C19.0744 5.22356 19.6388 5.49773 20.0707 5.92948C20.5025 6.36123 20.7768 6.92553 20.8496 7.53184C20.9224 8.13815 20.7894 8.75134 20.472 9.27303C20.4128 9.37029 20.3773 9.48016 20.3685 9.5937C20.3597 9.70724 20.3778 9.82126 20.4214 9.92648C20.4649 10.0317 20.5327 10.1252 20.6192 10.1993C20.7056 10.2734 20.8084 10.3261 20.919 10.353C21.5123 10.4972 22.04 10.8365 22.4174 11.3165C22.7948 11.7965 22.9999 12.3894 22.9999 13C22.9999 13.6106 22.7948 14.2035 22.4174 14.6835C22.04 15.1636 21.5123 15.5029 20.919 15.647C20.8083 15.6739 20.7054 15.7264 20.6189 15.8005C20.5323 15.8746 20.4644 15.968 20.4207 16.0733C20.3771 16.1785 20.3589 16.2926 20.3676 16.4062C20.3764 16.5198 20.4118 16.6297 20.471 16.727C20.7886 17.2486 20.9217 17.8618 20.8491 18.4681C20.7765 19.0745 20.5023 19.6388 20.0705 20.0707C19.6388 20.5026 19.0745 20.7769 18.4682 20.8497C17.8619 20.9224 17.2487 20.7894 16.727 20.472C16.6297 20.4128 16.5199 20.3773 16.4063 20.3686C16.2928 20.3598 16.1788 20.3779 16.0736 20.4214C15.9683 20.465 15.8749 20.5327 15.8007 20.6192C15.7266 20.7057 15.674 20.8084 15.647 20.919C15.5028 21.5124 15.1635 22.0401 14.6835 22.4174C14.2035 22.7948 13.6106 22.9999 13 22.9999C12.3894 22.9999 11.7965 22.7948 11.3165 22.4174C10.8365 22.0401 10.4972 21.5124 10.353 20.919C10.3262 20.8083 10.2736 20.7055 10.1995 20.6189C10.1255 20.5323 10.032 20.4644 9.92677 20.4208C9.82153 20.3771 9.70747 20.3589 9.59387 20.3676C9.48027 20.3764 9.37033 20.4118 9.273 20.471C8.7514 20.7886 8.13824 20.9217 7.53191 20.8491C6.92558 20.7765 6.36121 20.5023 5.92934 20.0706C5.49748 19.6388 5.22315 19.0745 5.15037 18.4682C5.0776 17.8619 5.21058 17.2487 5.528 16.727C5.58723 16.6298 5.62268 16.5199 5.63148 16.4064C5.64027 16.2928 5.62216 16.1788 5.5786 16.0736C5.53505 15.9684 5.46729 15.8749 5.38083 15.8008C5.29437 15.7267 5.19164 15.674 5.081 15.647C4.48766 15.5029 3.95997 15.1636 3.5826 14.6835C3.20524 14.2035 3.00009 13.6106 3.00009 13C3.00009 12.3894 3.20524 11.7965 3.5826 11.3165C3.95997 10.8365 4.48766 10.4972 5.081 10.353C5.19173 10.3262 5.29457 10.2736 5.38115 10.1996C5.46772 10.1255 5.5356 10.032 5.57926 9.9268C5.62291 9.82156 5.64111 9.7075 5.63238 9.5939C5.62365 9.4803 5.58823 9.37036 5.529 9.27303C5.21144 8.75143 5.07829 8.13827 5.15091 7.53194C5.22353 6.92561 5.4977 6.36124 5.92945 5.92937C6.3612 5.49751 6.92549 5.22318 7.53181 5.1504C8.13812 5.07763 8.75131 5.21061 9.273 5.52803C9.37017 5.58771 9.48008 5.62353 9.59376 5.63255C9.70743 5.64157 9.82162 5.62353 9.92698 5.57993C10.0323 5.53632 10.1259 5.46837 10.1999 5.38166C10.274 5.29494 10.3264 5.19192 10.353 5.08103C10.4972 4.4877 10.8365 3.96 11.3165 3.58263C11.7965 3.20527 12.3894 3.00012 13 3.00012C13.6106 3.00012 14.2035 3.20527 14.6835 3.58263C15.1635 3.96 15.5028 4.4877 15.647 5.08103ZM13 10C12.4067 10 11.8266 10.176 11.3333 10.5056C10.8399 10.8353 10.4554 11.3038 10.2284 11.852C10.0013 12.4002 9.94189 13.0034 10.0576 13.5853C10.1734 14.1672 10.4591 14.7018 10.8787 15.1214C11.2982 15.5409 11.8328 15.8266 12.4147 15.9424C12.9967 16.0581 13.5999 15.9987 14.1481 15.7717C14.6962 15.5446 15.1648 15.1601 15.4944 14.6667C15.8241 14.1734 16 13.5934 16 13C16 12.2044 15.6839 11.4413 15.1213 10.8787C14.5587 10.3161 13.7956 10 13 10Z" fill="#1F83F4"/>
<path d="M15.647 5.08103C15.6738 5.19176 15.7264 5.2946 15.8005 5.38118C15.8745 5.46776 15.968 5.53563 16.0732 5.57929C16.1785 5.62294 16.2925 5.64114 16.4061 5.63241C16.5197 5.62368 16.6297 5.58826 16.727 5.52903C17.2486 5.21147 17.8618 5.07832 18.4681 5.15094C19.0744 5.22356 19.6388 5.49773 20.0707 5.92948C20.5025 6.36123 20.7768 6.92553 20.8496 7.53184C20.9224 8.13815 20.7894 8.75134 20.472 9.27303C20.4128 9.37029 20.3773 9.48016 20.3685 9.5937C20.3597 9.70724 20.3778 9.82126 20.4214 9.92648C20.4649 10.0317 20.5327 10.1252 20.6192 10.1993C20.7056 10.2734 20.8084 10.3261 20.919 10.353C21.5123 10.4972 22.04 10.8365 22.4174 11.3165C22.7948 11.7965 22.9999 12.3894 22.9999 13C22.9999 13.6106 22.7948 14.2035 22.4174 14.6835C22.04 15.1636 21.5123 15.5029 20.919 15.647C20.8083 15.6739 20.7054 15.7264 20.6189 15.8005C20.5323 15.8746 20.4644 15.968 20.4207 16.0733C20.3771 16.1785 20.3589 16.2926 20.3676 16.4062C20.3764 16.5198 20.4118 16.6297 20.471 16.727C20.7886 17.2486 20.9217 17.8618 20.8491 18.4681C20.7765 19.0745 20.5023 19.6388 20.0705 20.0707C19.6388 20.5026 19.0745 20.7769 18.4682 20.8497C17.8619 20.9224 17.2487 20.7894 16.727 20.472C16.6297 20.4128 16.5199 20.3773 16.4063 20.3686C16.2928 20.3598 16.1788 20.3779 16.0736 20.4214C15.9683 20.465 15.8749 20.5327 15.8007 20.6192C15.7266 20.7057 15.674 20.8084 15.647 20.919C15.5028 21.5124 15.1635 22.0401 14.6835 22.4174C14.2035 22.7948 13.6106 22.9999 13 22.9999C12.3894 22.9999 11.7965 22.7948 11.3165 22.4174C10.8365 22.0401 10.4972 21.5124 10.353 20.919C10.3262 20.8083 10.2736 20.7055 10.1995 20.6189C10.1255 20.5323 10.032 20.4644 9.92677 20.4208C9.82153 20.3771 9.70747 20.3589 9.59387 20.3676C9.48027 20.3764 9.37033 20.4118 9.273 20.471C8.7514 20.7886 8.13824 20.9217 7.53191 20.8491C6.92558 20.7765 6.36121 20.5023 5.92934 20.0706C5.49748 19.6388 5.22315 19.0745 5.15037 18.4682C5.0776 17.8619 5.21058 17.2487 5.528 16.727C5.58723 16.6298 5.62268 16.5199 5.63148 16.4064C5.64027 16.2928 5.62216 16.1788 5.5786 16.0736C5.53505 15.9684 5.46729 15.8749 5.38083 15.8008C5.29437 15.7267 5.19164 15.674 5.081 15.647C4.48766 15.5029 3.95997 15.1636 3.5826 14.6835C3.20524 14.2035 3.00009 13.6106 3.00009 13C3.00009 12.3894 3.20524 11.7965 3.5826 11.3165C3.95997 10.8365 4.48766 10.4972 5.081 10.353C5.19173 10.3262 5.29457 10.2736 5.38115 10.1996C5.46772 10.1255 5.5356 10.032 5.57926 9.9268C5.62291 9.82156 5.64111 9.7075 5.63238 9.5939C5.62365 9.4803 5.58823 9.37036 5.529 9.27303C5.21144 8.75143 5.07829 8.13827 5.15091 7.53194C5.22353 6.92561 5.4977 6.36124 5.92945 5.92937C6.3612 5.49751 6.92549 5.22318 7.53181 5.1504C8.13812 5.07763 8.75131 5.21061 9.273 5.52803C9.37017 5.58771 9.48008 5.62353 9.59376 5.63255C9.70743 5.64157 9.82162 5.62353 9.92698 5.57993C10.0323 5.53632 10.1259 5.46837 10.1999 5.38166C10.274 5.29494 10.3264 5.19192 10.353 5.08103C10.4972 4.4877 10.8365 3.96 11.3165 3.58263C11.7965 3.20527 12.3894 3.00012 13 3.00012C13.6106 3.00012 14.2035 3.20527 14.6835 3.58263C15.1635 3.96 15.5028 4.4877 15.647 5.08103ZM13 10C12.4067 10 11.8266 10.176 11.3333 10.5056C10.8399 10.8353 10.4554 11.3038 10.2284 11.852C10.0013 12.4002 9.94189 13.0034 10.0576 13.5853C10.1734 14.1672 10.4591 14.7018 10.8787 15.1214C11.2982 15.5409 11.8328 15.8266 12.4147 15.9424C12.9967 16.0581 13.5999 15.9987 14.1481 15.7717C14.6962 15.5446 15.1648 15.1601 15.4944 14.6667C15.8241 14.1734 16 13.5934 16 13C16 12.2044 15.6839 11.4413 15.1213 10.8787C14.5587 10.3161 13.7956 10 13 10Z" fill="#1F83F4"/>
<path d="M15.647 5.08103C15.6738 5.19176 15.7264 5.2946 15.8005 5.38118C15.8745 5.46776 15.968 5.53563 16.0732 5.57929C16.1785 5.62294 16.2925 5.64114 16.4061 5.63241C16.5197 5.62368 16.6297 5.58826 16.727 5.52903C17.2486 5.21147 17.8618 5.07832 18.4681 5.15094C19.0744 5.22356 19.6388 5.49773 20.0707 5.92948C20.5025 6.36123 20.7768 6.92553 20.8496 7.53184C20.9224 8.13815 20.7894 8.75134 20.472 9.27303C20.4128 9.37029 20.3773 9.48016 20.3685 9.5937C20.3597 9.70724 20.3778 9.82126 20.4214 9.92648C20.4649 10.0317 20.5327 10.1252 20.6192 10.1993C20.7056 10.2734 20.8084 10.3261 20.919 10.353C21.5123 10.4972 22.04 10.8365 22.4174 11.3165C22.7948 11.7965 22.9999 12.3894 22.9999 13C22.9999 13.6106 22.7948 14.2035 22.4174 14.6835C22.04 15.1636 21.5123 15.5029 20.919 15.647C20.8083 15.6739 20.7054 15.7264 20.6189 15.8005C20.5323 15.8746 20.4644 15.968 20.4207 16.0733C20.3771 16.1785 20.3589 16.2926 20.3676 16.4062C20.3764 16.5198 20.4118 16.6297 20.471 16.727C20.7886 17.2486 20.9217 17.8618 20.8491 18.4681C20.7765 19.0745 20.5023 19.6388 20.0705 20.0707C19.6388 20.5026 19.0745 20.7769 18.4682 20.8497C17.8619 20.9224 17.2487 20.7894 16.727 20.472C16.6297 20.4128 16.5199 20.3773 16.4063 20.3686C16.2928 20.3598 16.1788 20.3779 16.0736 20.4214C15.9683 20.465 15.8749 20.5327 15.8007 20.6192C15.7266 20.7057 15.674 20.8084 15.647 20.919C15.5028 21.5124 15.1635 22.0401 14.6835 22.4174C14.2035 22.7948 13.6106 22.9999 13 22.9999C12.3894 22.9999 11.7965 22.7948 11.3165 22.4174C10.8365 22.0401 10.4972 21.5124 10.353 20.919C10.3262 20.8083 10.2736 20.7055 10.1995 20.6189C10.1255 20.5323 10.032 20.4644 9.92677 20.4208C9.82153 20.3771 9.70747 20.3589 9.59387 20.3676C9.48027 20.3764 9.37033 20.4118 9.273 20.471C8.7514 20.7886 8.13824 20.9217 7.53191 20.8491C6.92558 20.7765 6.36121 20.5023 5.92934 20.0706C5.49748 19.6388 5.22315 19.0745 5.15037 18.4682C5.0776 17.8619 5.21058 17.2487 5.528 16.727C5.58723 16.6298 5.62268 16.5199 5.63148 16.4064C5.64027 16.2928 5.62216 16.1788 5.5786 16.0736C5.53505 15.9684 5.46729 15.8749 5.38083 15.8008C5.29437 15.7267 5.19164 15.674 5.081 15.647C4.48766 15.5029 3.95997 15.1636 3.5826 14.6835C3.20524 14.2035 3.00009 13.6106 3.00009 13C3.00009 12.3894 3.20524 11.7965 3.5826 11.3165C3.95997 10.8365 4.48766 10.4972 5.081 10.353C5.19173 10.3262 5.29457 10.2736 5.38115 10.1996C5.46772 10.1255 5.5356 10.032 5.57926 9.9268C5.62291 9.82156 5.64111 9.7075 5.63238 9.5939C5.62365 9.4803 5.58823 9.37036 5.529 9.27303C5.21144 8.75143 5.07829 8.13827 5.15091 7.53194C5.22353 6.92561 5.4977 6.36124 5.92945 5.92937C6.3612 5.49751 6.92549 5.22318 7.53181 5.1504C8.13812 5.07763 8.75131 5.21061 9.273 5.52803C9.37017 5.58771 9.48008 5.62353 9.59376 5.63255C9.70743 5.64157 9.82162 5.62353 9.92698 5.57993C10.0323 5.53632 10.1259 5.46837 10.1999 5.38166C10.274 5.29494 10.3264 5.19192 10.353 5.08103C10.4972 4.4877 10.8365 3.96 11.3165 3.58263C11.7965 3.20527 12.3894 3.00012 13 3.00012C13.6106 3.00012 14.2035 3.20527 14.6835 3.58263C15.1635 3.96 15.5028 4.4877 15.647 5.08103ZM13 10C12.4067 10 11.8266 10.176 11.3333 10.5056C10.8399 10.8353 10.4554 11.3038 10.2284 11.852C10.0013 12.4002 9.94189 13.0034 10.0576 13.5853C10.1734 14.1672 10.4591 14.7018 10.8787 15.1214C11.2982 15.5409 11.8328 15.8266 12.4147 15.9424C12.9967 16.0581 13.5999 15.9987 14.1481 15.7717C14.6962 15.5446 15.1648 15.1601 15.4944 14.6667C15.8241 14.1734 16 13.5934 16 13C16 12.2044 15.6839 11.4413 15.1213 10.8787C14.5587 10.3161 13.7956 10 13 10Z" fill="#1F83F4"/>
</svg>
