<svg width="22" height="22" viewBox="0 0 22 22" fill="none" xmlns="http://www.w3.org/2000/svg">
<path d="M11 0.166947C11.6635 0.159183 12.3096 0.378628 12.8312 0.788834C13.3527 1.19904 13.7182 1.77532 13.867 2.42195C13.896 2.54207 13.9529 2.65363 14.0332 2.74755C14.1136 2.84146 14.2149 2.91506 14.3291 2.96234C14.4433 3.00963 14.567 3.02926 14.6902 3.01963C14.8134 3.01 14.9325 2.97139 15.038 2.90695C15.3774 2.69453 15.7568 2.55404 16.1527 2.49416C16.5486 2.43429 16.9526 2.45631 17.3396 2.55886C17.7267 2.66141 18.0886 2.84231 18.4029 3.09036C18.7172 3.33841 18.9773 3.64834 19.167 4.00095C19.4231 4.45601 19.5517 4.9718 19.539 5.49385C19.5263 6.0159 19.3729 6.52485 19.095 6.96695C19.0307 7.07228 18.9923 7.1913 18.9827 7.31431C18.9731 7.43731 18.9927 7.56085 19.0398 7.67486C19.087 7.78887 19.1604 7.89014 19.2541 7.97044C19.3478 8.05073 19.4591 8.10778 19.579 8.13695C20.2217 8.29317 20.7933 8.66078 21.202 9.18079C21.6107 9.70079 21.8329 10.343 21.8329 11.0044C21.8329 11.6659 21.6107 12.3081 21.202 12.8281C20.7933 13.3481 20.2217 13.7157 19.579 13.8719C19.4589 13.9009 19.3473 13.9579 19.2534 14.0382C19.1595 14.1185 19.0859 14.2199 19.0386 14.3341C18.9913 14.4482 18.9717 14.572 18.9813 14.6951C18.9909 14.8183 19.0295 14.9375 19.094 15.0429C19.3705 15.485 19.5228 15.9933 19.5348 16.5146C19.5467 17.0359 19.418 17.5507 19.162 18.0049C18.9723 18.3568 18.7126 18.6661 18.3987 18.9137C18.0849 19.1613 17.7237 19.3419 17.3374 19.4445C16.9511 19.5471 16.5478 19.5695 16.1525 19.5102C15.7572 19.451 15.3782 19.3113 15.039 19.0999C14.9336 19.0357 14.8146 18.9972 14.6916 18.9876C14.5686 18.9781 14.4451 18.9977 14.3311 19.0448C14.217 19.092 14.1158 19.1654 14.0355 19.2591C13.9552 19.3528 13.8981 19.4641 13.869 19.5839C13.7127 20.2266 13.3451 20.7982 12.8251 21.207C12.3051 21.6157 11.6629 21.8379 11.0015 21.8379C10.3401 21.8379 9.69781 21.6157 9.17781 21.207C8.65781 20.7982 8.2902 20.2266 8.13397 19.5839C8.10539 19.464 8.04892 19.3525 7.96914 19.2584C7.88937 19.1644 7.78853 19.0905 7.67483 19.0428C7.56113 18.995 7.43777 18.9748 7.31478 18.9837C7.19178 18.9926 7.07262 19.0303 6.96697 19.0939C6.62774 19.3055 6.24874 19.4454 5.85337 19.5048C5.458 19.5642 5.05465 19.542 4.66821 19.4395C4.28176 19.337 3.92043 19.1563 3.6065 18.9087C3.29257 18.6612 3.03272 18.3519 2.84297 17.9999C2.58684 17.5458 2.45788 17.031 2.46967 16.5097C2.48146 15.9885 2.63356 15.48 2.90997 15.0379C2.97422 14.9326 3.01269 14.8136 3.02227 14.6906C3.03185 14.5676 3.01226 14.444 2.96509 14.33C2.91793 14.216 2.84452 14.1148 2.75084 14.0345C2.65716 13.9542 2.54586 13.8971 2.42597 13.8679C1.78327 13.7117 1.21168 13.3441 0.802941 12.8241C0.394198 12.3041 0.171997 11.6619 0.171997 11.0004C0.171997 10.339 0.394198 9.69679 0.802941 9.17679C1.21168 8.65679 1.78327 8.28917 2.42597 8.13295C2.545 8.1032 2.65539 8.04594 2.74826 7.96576C2.84113 7.88558 2.91388 7.78473 2.96067 7.67131C3.00746 7.55789 3.02697 7.43507 3.01765 7.31274C3.00832 7.1904 2.97041 7.07196 2.90697 6.96695C2.63041 6.52494 2.47813 6.01655 2.46617 5.49529C2.4542 4.97403 2.58299 4.45918 2.83897 4.00495C3.02816 3.65198 3.2878 3.3416 3.6018 3.09304C3.91581 2.84448 4.27749 2.66302 4.66447 2.5599C5.05144 2.45678 5.45546 2.4342 5.85151 2.49355C6.24757 2.5529 6.62722 2.69292 6.96697 2.90495C7.08923 2.98067 7.23016 3.02084 7.37397 3.02095C7.55001 3.02097 7.72094 2.96183 7.85932 2.85301C7.9977 2.74419 8.09549 2.59203 8.13697 2.42095C8.28563 1.77509 8.65059 1.19945 9.17132 0.789485C9.69205 0.379521 10.3373 0.159866 11 0.166947ZM14.63 5.18795C13.9691 5.18683 13.3276 4.96388 12.8085 4.55482C12.2894 4.14576 11.9226 3.57428 11.767 2.93195C11.7256 2.76103 11.628 2.60898 11.4898 2.50024C11.3516 2.39149 11.1808 2.33237 11.005 2.33237C10.8291 2.33237 10.6584 2.39149 10.5202 2.50024C10.382 2.60898 10.2843 2.76103 10.243 2.93195C10.1343 3.38415 9.92012 3.80423 9.61802 4.15784C9.31592 4.51145 8.93444 4.78857 8.50476 4.96655C8.07507 5.14453 7.60937 5.21832 7.14571 5.18189C6.68205 5.14546 6.23359 4.99985 5.83697 4.75695C5.71298 4.67718 5.56936 4.63323 5.42197 4.62995C5.27866 4.63516 5.13921 4.67778 5.01746 4.75356C4.89572 4.82934 4.79592 4.93566 4.72797 5.06195C4.65957 5.18046 4.626 5.31588 4.63113 5.45262C4.63626 5.58937 4.67988 5.72189 4.75697 5.83495C4.99797 6.23154 5.14203 6.67937 5.17746 7.14209C5.2129 7.6048 5.1387 8.06935 4.96091 8.49801C4.78311 8.92667 4.50672 9.30736 4.15419 9.60916C3.80166 9.91095 3.38292 10.1254 2.93197 10.2349C2.76105 10.2763 2.609 10.3739 2.50026 10.5121C2.39152 10.6503 2.33239 10.8211 2.33239 10.9969C2.33239 11.1728 2.39152 11.3435 2.50026 11.4818C2.609 11.62 2.76105 11.7176 2.93197 11.7589C3.38402 11.8682 3.80384 12.0828 4.15719 12.3852C4.51053 12.6876 4.78741 13.0692 4.96523 13.499C5.14305 13.9287 5.21679 14.3944 5.18042 14.858C5.14405 15.3217 4.99862 15.7702 4.75597 16.1669C4.67899 16.2801 4.63544 16.4126 4.63031 16.5493C4.62518 16.686 4.65868 16.8214 4.72697 16.9399C4.79492 17.0662 4.89472 17.1726 5.01646 17.2483C5.13821 17.3241 5.27766 17.3667 5.42097 17.3719C5.56807 17.3688 5.7114 17.3248 5.83497 17.2449C6.23156 17.004 6.6794 16.8599 7.14211 16.8245C7.60483 16.789 8.06938 16.8632 8.49804 17.041C8.9267 17.2188 9.30738 17.4952 9.60918 17.8477C9.91098 18.2003 10.1254 18.619 10.235 19.0699C10.2763 19.2409 10.374 19.3929 10.5122 19.5017C10.6504 19.6104 10.8211 19.6695 10.997 19.6695C11.1728 19.6695 11.3436 19.6104 11.4818 19.5017C11.62 19.3929 11.7176 19.2409 11.759 19.0699C11.8681 18.6178 12.0826 18.1979 12.385 17.8444C12.6873 17.491 13.0689 17.214 13.4987 17.036C13.9284 16.8581 14.3942 16.7843 14.8579 16.8206C15.3216 16.8569 15.7701 17.0023 16.167 17.2449C16.2907 17.3245 16.4339 17.3685 16.581 17.3719C16.7243 17.3667 16.8637 17.3241 16.9855 17.2483C17.1072 17.1726 17.207 17.0662 17.275 16.9399C17.3431 16.8212 17.3763 16.6857 17.3708 16.549C17.3653 16.4122 17.3214 16.2798 17.244 16.1669C17.003 15.7705 16.8588 15.3228 16.8233 14.8602C16.7877 14.3976 16.8618 13.9331 17.0393 13.5045C17.2169 13.0759 17.4931 12.6952 17.8454 12.3933C18.1977 12.0914 18.6162 11.8768 19.067 11.7669C19.2379 11.7256 19.3899 11.628 19.4987 11.4898C19.6074 11.3515 19.6665 11.1808 19.6665 11.0049C19.6665 10.8291 19.6074 10.6583 19.4987 10.5201C19.3899 10.3819 19.2379 10.2843 19.067 10.2429C18.6161 10.1332 18.1975 9.91874 17.8451 9.61689C17.4926 9.31504 17.2164 8.93434 17.0387 8.5057C16.861 8.07705 16.7869 7.61255 16.8224 7.14989C16.8579 6.68724 17.002 6.23947 17.243 5.84295C17.3202 5.72974 17.3638 5.59704 17.3689 5.46012C17.3741 5.3232 17.3405 5.18762 17.272 5.06895C17.2041 4.9428 17.1045 4.83658 16.9829 4.7608C16.8614 4.68503 16.7221 4.64233 16.579 4.63695C16.4332 4.63837 16.2907 4.67989 16.167 4.75695C15.704 5.03913 15.1722 5.18826 14.63 5.18795Z" fill="#959595"/>
</svg>
