<svg width="17" height="16" viewBox="0 0 17 16" fill="none" xmlns="http://www.w3.org/2000/svg">
<path d="M8.67205 16.0002C7.08975 16.0003 5.54298 15.5311 4.22733 14.6521C2.91169 13.773 1.88626 12.5236 1.28074 11.0617C0.675212 9.59987 0.516784 7.99129 0.82549 6.4394C1.1342 4.88752 1.89617 3.46203 3.01505 2.34321C4.51538 0.842876 6.55026 -1.58085e-08 8.67205 0C10.7938 1.58085e-08 12.8287 0.842877 14.329 2.34321C15.8294 3.84354 16.6723 5.87842 16.6723 8.00021C16.6723 10.122 15.8294 12.1569 14.329 13.6572C13.5879 14.4024 12.7063 14.9931 11.7352 15.3953C10.7642 15.7975 9.72306 16.0031 8.67205 16.0002ZM8.67205 1.25021C7.33702 1.25021 6.03198 1.64609 4.92195 2.38779C3.81192 3.12949 2.94675 4.18369 2.43586 5.41709C1.92497 6.65049 1.7913 8.00769 2.05175 9.31707C2.3122 10.6264 2.95507 11.8292 3.89908 12.7732C4.84308 13.7172 6.04582 14.3601 7.35519 14.6205C8.66456 14.881 10.0218 14.7473 11.2552 14.2364C12.4886 13.7255 13.5428 12.8603 14.2845 11.7503C15.0262 10.6403 15.422 9.33523 15.422 8.00021C15.4199 6.21064 14.7081 4.49499 13.4427 3.22957C12.1773 1.96416 10.4616 1.25232 8.67205 1.25021ZM11.601 9.38121C11.5318 9.33713 11.4545 9.30713 11.3736 9.29292C11.2928 9.27872 11.2099 9.28058 11.1298 9.29841C11.0496 9.31624 10.9738 9.34969 10.9066 9.39684C10.8394 9.44399 10.7821 9.50392 10.738 9.57321C10.5037 9.92204 10.1927 10.2126 9.82863 10.4225C9.4646 10.6324 9.05733 10.7561 8.63805 10.7842C8.21877 10.7561 7.81149 10.6324 7.44747 10.4225C7.08344 10.2126 6.77235 9.92204 6.53805 9.57321C6.44907 9.4333 6.30816 9.33448 6.14631 9.29847C5.98447 9.26247 5.81495 9.29223 5.67505 9.38121C5.53515 9.47019 5.43632 9.6111 5.40031 9.77294C5.36431 9.93479 5.39407 10.1043 5.48305 10.2442C5.83155 10.7685 6.29838 11.2035 6.84588 11.5143C7.39338 11.825 8.00624 12.0028 8.63505 12.0332C9.26385 12.0028 9.87671 11.825 10.4242 11.5143C10.9717 11.2035 11.4385 10.7685 11.787 10.2442C11.8766 10.105 11.9073 9.93603 11.8725 9.77425C11.8376 9.61247 11.74 9.47112 11.601 9.38121ZM5.92205 5.15621C6.07652 5.15621 6.22751 5.20201 6.35595 5.28783C6.48438 5.37365 6.58449 5.49562 6.6436 5.63833C6.70271 5.78104 6.71818 5.93807 6.68804 6.08957C6.65791 6.24107 6.58352 6.38023 6.4743 6.48946C6.36507 6.59868 6.22591 6.67306 6.07441 6.7032C5.92291 6.73333 5.76588 6.71787 5.62317 6.65876C5.48046 6.59964 5.35849 6.49954 5.27267 6.37111C5.18685 6.24267 5.14105 6.09167 5.14105 5.93721C5.14105 5.73007 5.22333 5.53142 5.3698 5.38496C5.51626 5.23849 5.71491 5.15621 5.92205 5.15621ZM10.609 5.93721C10.609 6.09167 10.6549 6.24267 10.7407 6.37111C10.8265 6.49954 10.9485 6.59964 11.0912 6.65876C11.2339 6.71787 11.3909 6.73333 11.5424 6.7032C11.6939 6.67306 11.8331 6.59868 11.9423 6.48946C12.0515 6.38023 12.1259 6.24107 12.156 6.08957C12.1862 5.93807 12.1707 5.78104 12.1116 5.63833C12.0525 5.49562 11.9524 5.37365 11.8239 5.28783C11.6955 5.20201 11.5445 5.15621 11.39 5.15621C11.2875 5.15621 11.1859 5.17641 11.0912 5.21566C10.9964 5.25491 10.9103 5.31243 10.8378 5.38496C10.7653 5.45748 10.7077 5.54358 10.6685 5.63833C10.6292 5.73309 10.609 5.83464 10.609 5.93721Z" fill="#959595"/>
</svg>
