<svg width="23" height="23" viewBox="0 0 23 23" fill="none" xmlns="http://www.w3.org/2000/svg">
<path d="M19.71 3.8881C19.5289 3.72901 19.294 3.64489 19.053 3.65286C18.8121 3.66083 18.5832 3.76029 18.413 3.93101C18.2428 4.10173 18.1441 4.33087 18.1368 4.57183C18.1296 4.81279 18.2144 5.04746 18.374 5.2281C19.9528 6.81102 20.8394 8.95544 20.8394 11.1911C20.8394 13.4268 19.9528 15.5712 18.374 17.1541C18.2767 17.2396 18.1979 17.3441 18.1426 17.4612C18.0872 17.5783 18.0564 17.7055 18.0522 17.835C18.0479 17.9645 18.0702 18.0934 18.1177 18.2139C18.1652 18.3344 18.2368 18.4439 18.3283 18.5357C18.4198 18.6274 18.529 18.6994 18.6494 18.7473C18.7698 18.7951 18.8987 18.8178 19.0282 18.8139C19.1576 18.81 19.2849 18.7796 19.4022 18.7246C19.5195 18.6696 19.6242 18.5912 19.71 18.4941C21.6442 16.5558 22.7305 13.9294 22.7305 11.1911C22.7305 8.45284 21.6442 5.8264 19.71 3.8881Z" fill="#1F83F4"/>
<path d="M17.141 6.7309C17.0541 6.63828 16.9494 6.56407 16.8333 6.51268C16.7171 6.46129 16.5918 6.43377 16.4648 6.43176C16.3378 6.42975 16.2116 6.45328 16.0939 6.50095C15.9762 6.54863 15.8692 6.61948 15.7794 6.7093C15.6896 6.79912 15.6187 6.90608 15.5711 7.02381C15.5234 7.14155 15.4998 7.26767 15.5019 7.39468C15.5039 7.52168 15.5314 7.64699 15.5828 7.76316C15.6342 7.87932 15.7084 7.98398 15.801 8.0709C16.6272 8.89928 17.0911 10.0215 17.0911 11.1914C17.0911 12.3613 16.6272 13.4835 15.801 14.3119C15.7106 14.3994 15.6385 14.5039 15.5889 14.6195C15.5394 14.7351 15.5133 14.8594 15.5122 14.9852C15.5112 15.111 15.5351 15.2357 15.5828 15.3521C15.6304 15.4685 15.7007 15.5743 15.7896 15.6633C15.8785 15.7523 15.9842 15.8227 16.1006 15.8704C16.217 15.9181 16.3417 15.9421 16.4675 15.9412C16.5933 15.9402 16.7176 15.9142 16.8332 15.8647C16.9488 15.8152 17.0535 15.7432 17.141 15.6529C18.3221 14.4689 18.9853 12.8648 18.9853 11.1924C18.9853 9.52003 18.3221 7.91492 17.141 6.7309Z" fill="#1F83F4"/>
<path d="M13.095 0.0159815C10.2155 0.556269 7.6536 2.18231 5.939 4.55798H4.739C3.48272 4.5593 2.27825 5.05888 1.38984 5.94711C0.501416 6.83534 0.00158819 8.0397 0 9.29598L0 13.086C0.00158767 14.3421 0.501278 15.5463 1.38948 16.4345C2.27769 17.3227 3.48189 17.8224 4.738 17.824H5.938C7.65183 20.1995 10.213 21.8256 13.092 22.366C13.2286 22.391 13.369 22.3858 13.5033 22.3506C13.6376 22.3154 13.7626 22.2511 13.8693 22.1623C13.9761 22.0735 14.062 21.9623 14.121 21.8366C14.1801 21.711 14.2108 21.5738 14.211 21.435V0.947982C14.2109 0.809345 14.1803 0.672428 14.1215 0.54688C14.0627 0.421333 13.9771 0.31021 13.8707 0.221345C13.7643 0.132479 13.6396 0.0680342 13.5056 0.0325517C13.3716 -0.00293072 13.2314 -0.00858703 13.095 0.0159815Z" fill="#1F83F4"/>
</svg>
