<svg width="26" height="26" viewBox="0 0 26 26" fill="none" xmlns="http://www.w3.org/2000/svg">
<g clip-path="url(#clip0_216_15)">
<path d="M6.11 7.19297C5.89554 7.19325 5.68582 7.12984 5.50743 7.0108C5.32904 6.89175 5.19002 6.72243 5.10797 6.52428C5.02593 6.32613 5.00456 6.10808 5.04658 5.89778C5.0886 5.68747 5.19211 5.49438 5.344 5.34297C6.34932 4.33636 7.54394 3.5387 8.859 2.99597C8.99119 2.93641 9.13399 2.90401 9.27894 2.90068C9.42389 2.89734 9.56803 2.92315 9.70282 2.97656C9.83761 3.02997 9.9603 3.10991 10.0636 3.21162C10.1669 3.31334 10.2488 3.43476 10.3043 3.5687C10.3598 3.70264 10.3879 3.84636 10.3868 3.99134C10.3857 4.13632 10.3556 4.27961 10.2981 4.41272C10.2406 4.54583 10.157 4.66604 10.0522 4.76623C9.94741 4.86641 9.82356 4.94454 9.688 4.99597C8.63575 5.43086 7.68004 6.06982 6.876 6.87597C6.77549 6.97665 6.65608 7.05649 6.52463 7.11089C6.39317 7.16529 6.25226 7.19318 6.11 7.19297Z" fill="#959595"/>
<path d="M3.24999 14.083C3.10764 14.0829 2.96671 14.0547 2.83524 14.0001C2.70377 13.9455 2.58435 13.8656 2.48378 13.7648C2.38322 13.6641 2.30348 13.5445 2.24912 13.4129C2.19477 13.2814 2.16686 13.1404 2.16699 12.998C2.16823 11.5764 2.45065 10.1691 2.99799 8.85702C3.10832 8.5918 3.31949 8.38128 3.58504 8.27176C3.85059 8.16223 4.14878 8.16269 4.41399 8.27302C4.67921 8.38335 4.88973 8.59452 4.99926 8.86007C5.10878 9.12562 5.10832 9.4238 4.99799 9.68902C4.56037 10.7388 4.33471 11.8647 4.33399 13.002C4.33346 13.2891 4.21899 13.5642 4.01573 13.7669C3.81247 13.9696 3.53705 14.0833 3.24999 14.083Z" fill="#959595"/>
<path d="M6.11 20.973C5.96766 20.9731 5.82671 20.945 5.69526 20.8905C5.5638 20.8359 5.44442 20.7559 5.344 20.655C4.33739 19.6497 3.53973 18.4551 2.997 17.14C2.89713 16.8768 2.9037 16.585 3.01531 16.3265C3.12692 16.068 3.3348 15.8632 3.59488 15.7554C3.85497 15.6476 4.14681 15.6453 4.40855 15.749C4.67029 15.8527 4.88136 16.0543 4.997 16.311C5.4313 17.3631 6.06957 18.3188 6.875 19.123C7.02654 19.2745 7.12975 19.4675 7.17157 19.6776C7.2134 19.8878 7.19195 20.1056 7.10994 20.3035C7.02794 20.5015 6.88907 20.6706 6.71089 20.7896C6.53272 20.9086 6.32326 20.9721 6.109 20.972L6.11 20.973Z" fill="#959595"/>
<path d="M13 23.833C11.5784 23.8318 10.171 23.5494 8.859 23.002C8.59379 22.8917 8.38326 22.6805 8.27374 22.415C8.16422 22.1494 8.16467 21.8512 8.275 21.586C8.38533 21.3208 8.5965 21.1103 8.86205 21.0008C9.1276 20.8912 9.42579 20.8917 9.691 21.002C10.7407 21.4396 11.8667 21.6653 13.004 21.666C13.2914 21.666 13.567 21.7802 13.7702 21.9834C13.9733 22.1866 14.0875 22.4622 14.0875 22.7495C14.0875 23.0369 13.9733 23.3125 13.7702 23.5157C13.567 23.7189 13.2914 23.833 13.004 23.833H13Z" fill="#959595"/>
<path d="M16.727 23.086C16.4764 23.0857 16.2336 22.9987 16.04 22.8396C15.8463 22.6806 15.7138 22.4593 15.6649 22.2136C15.6159 21.9678 15.6537 21.7127 15.7717 21.4916C15.8897 21.2705 16.0806 21.0971 16.312 21.001C17.3641 20.5666 18.3198 19.9284 19.124 19.123C19.3272 18.9198 19.6027 18.8057 19.89 18.8057C20.1773 18.8057 20.4528 18.9198 20.656 19.123C20.8592 19.3261 20.9733 19.6016 20.9733 19.889C20.9733 20.1763 20.8592 20.4518 20.656 20.655C19.6507 21.6616 18.4561 22.4592 17.141 23.002C17.0099 23.0569 16.8692 23.0855 16.727 23.086Z" fill="#959595"/>
<path d="M22.002 17.811C21.8237 17.8109 21.6482 17.7667 21.4911 17.6825C21.3339 17.5984 21.2 17.4767 21.1011 17.3283C21.0022 17.18 20.9414 17.0096 20.9241 16.8321C20.9068 16.6547 20.9336 16.4757 21.002 16.3111C21.4396 15.2613 21.6653 14.1354 21.666 12.9981C21.666 12.7107 21.7802 12.4351 21.9834 12.2319C22.1866 12.0287 22.4621 11.9146 22.7495 11.9146C23.0369 11.9146 23.3125 12.0287 23.5157 12.2319C23.7189 12.4351 23.833 12.7107 23.833 12.9981C23.8318 14.4197 23.5493 15.827 23.002 17.1391C22.9205 17.3374 22.782 17.5072 22.604 17.6268C22.426 17.7464 22.2165 17.8105 22.002 17.811Z" fill="#959595"/>
<path d="M22.003 10.3572C21.7889 10.3569 21.5796 10.2932 21.4017 10.1742C21.2237 10.0551 21.085 9.88599 21.003 9.68818C20.5687 8.6361 19.9304 7.6804 19.125 6.87618C18.9257 6.67227 18.8148 6.39796 18.8165 6.11281C18.8181 5.82765 18.9322 5.55466 19.1339 5.35309C19.3356 5.15151 19.6087 5.03763 19.8938 5.03615C20.179 5.03467 20.4532 5.14571 20.657 5.34518C21.6636 6.3505 22.4613 7.54512 23.004 8.86018C23.0724 9.02482 23.0992 9.20379 23.0819 9.38124C23.0646 9.55869 23.0038 9.72913 22.9049 9.87748C22.8061 10.0258 22.6721 10.1475 22.5149 10.2317C22.3578 10.3159 22.1823 10.36 22.004 10.3602L22.003 10.3572Z" fill="#959595"/>
<path d="M16.727 5.08099C16.5842 5.0811 16.4428 5.05289 16.311 4.99799C15.2613 4.56037 14.1353 4.3347 12.998 4.33399C12.7106 4.33399 12.4351 4.21984 12.2319 4.01664C12.0287 3.81345 11.9145 3.53785 11.9145 3.25049C11.9145 2.96313 12.0287 2.68754 12.2319 2.48434C12.4351 2.28115 12.7106 2.16699 12.998 2.16699C14.4196 2.16823 15.827 2.45065 17.139 2.99799C17.3699 3.09458 17.5602 3.26807 17.6777 3.48903C17.7952 3.70998 17.8326 3.96478 17.7836 4.21019C17.7347 4.4556 17.6023 4.67651 17.4089 4.83541C17.2156 4.99432 16.9733 5.08144 16.723 5.08199L16.727 5.08099Z" fill="#959595"/>
</g>
<defs>
<clipPath id="clip0_216_15">
<rect width="26" height="26" fill="white"/>
</clipPath>
</defs>
</svg>
