<svg width="26" height="26" viewBox="0 0 26 26" fill="none" xmlns="http://www.w3.org/2000/svg">
<g clip-path="url(#clip0_13359_4068)">
<path d="M6.11001 7.19303C5.89555 7.19331 5.68584 7.12991 5.50745 7.01086C5.32906 6.89182 5.19003 6.72249 5.10799 6.52434C5.02594 6.32619 5.00458 6.10814 5.0466 5.89784C5.08861 5.68753 5.19213 5.49444 5.34401 5.34303C6.34933 4.33642 7.54396 3.53876 8.85901 2.99603C8.99121 2.93648 9.13401 2.90407 9.27896 2.90074C9.4239 2.8974 9.56805 2.92321 9.70283 2.97662C9.83762 3.03004 9.96031 3.10997 10.0636 3.21168C10.167 3.3134 10.2488 3.43482 10.3043 3.56876C10.3598 3.7027 10.3879 3.84642 10.3868 3.9914C10.3858 4.13638 10.3556 4.27967 10.2981 4.41278C10.2406 4.54589 10.157 4.6661 10.0522 4.76629C9.94742 4.86647 9.82357 4.9446 9.68801 4.99603C8.63577 5.43092 7.68005 6.06988 6.87601 6.87603C6.77551 6.97671 6.6561 7.05655 6.52464 7.11095C6.39319 7.16535 6.25228 7.19325 6.11001 7.19303Z" fill="#1F83F4"/>
<path d="M3.24999 14.083C3.10764 14.0829 2.96671 14.0547 2.83524 14.0001C2.70377 13.9455 2.58435 13.8656 2.48378 13.7648C2.38322 13.6641 2.30348 13.5445 2.24912 13.4129C2.19477 13.2814 2.16686 13.1404 2.16699 12.998C2.16823 11.5764 2.45065 10.1691 2.99799 8.85702C3.10832 8.5918 3.31949 8.38128 3.58504 8.27176C3.85059 8.16223 4.14878 8.16269 4.41399 8.27302C4.67921 8.38335 4.88973 8.59452 4.99926 8.86007C5.10878 9.12562 5.10832 9.4238 4.99799 9.68902C4.56037 10.7388 4.33471 11.8647 4.33399 13.002C4.33346 13.2891 4.21899 13.5642 4.01573 13.7669C3.81247 13.9696 3.53705 14.0833 3.24999 14.083Z" fill="#1F83F4"/>
<path d="M6.11 20.973C5.96766 20.9731 5.82671 20.945 5.69526 20.8905C5.5638 20.8359 5.44442 20.7559 5.344 20.655C4.33739 19.6497 3.53973 18.4551 2.997 17.14C2.89713 16.8768 2.9037 16.585 3.01531 16.3265C3.12692 16.068 3.3348 15.8632 3.59488 15.7554C3.85497 15.6476 4.14681 15.6453 4.40855 15.749C4.67029 15.8527 4.88136 16.0543 4.997 16.311C5.4313 17.3631 6.06957 18.3188 6.875 19.123C7.02654 19.2745 7.12975 19.4675 7.17157 19.6776C7.2134 19.8878 7.19195 20.1056 7.10994 20.3035C7.02794 20.5015 6.88907 20.6706 6.71089 20.7896C6.53272 20.9086 6.32326 20.9721 6.109 20.972L6.11 20.973Z" fill="#1F83F4"/>
<path d="M13 23.833C11.5784 23.8318 10.171 23.5494 8.859 23.002C8.59379 22.8917 8.38326 22.6805 8.27374 22.415C8.16422 22.1494 8.16467 21.8512 8.275 21.586C8.38533 21.3208 8.5965 21.1103 8.86205 21.0008C9.1276 20.8912 9.42579 20.8917 9.691 21.002C10.7407 21.4396 11.8667 21.6653 13.004 21.666C13.2914 21.666 13.567 21.7802 13.7702 21.9834C13.9733 22.1866 14.0875 22.4622 14.0875 22.7495C14.0875 23.0369 13.9733 23.3125 13.7702 23.5157C13.567 23.7189 13.2914 23.833 13.004 23.833H13Z" fill="#1F83F4"/>
<path d="M16.727 23.086C16.4764 23.0858 16.2336 22.9987 16.04 22.8397C15.8463 22.6806 15.7138 22.4594 15.6648 22.2136C15.6159 21.9678 15.6537 21.7127 15.7717 21.4916C15.8896 21.2706 16.0806 21.0972 16.312 21.001C17.3641 20.5667 18.3198 19.9284 19.124 19.123C19.3271 18.9199 19.6027 18.8057 19.89 18.8057C20.1773 18.8057 20.4528 18.9199 20.656 19.123C20.8591 19.3262 20.9733 19.6017 20.9733 19.889C20.9733 20.1763 20.8591 20.4519 20.656 20.655C19.6507 21.6616 18.456 22.4593 17.141 23.002C17.0099 23.057 16.8692 23.0855 16.727 23.086Z" fill="#1F83F4"/>
<path d="M22.002 17.811C21.8237 17.8108 21.6482 17.7667 21.4911 17.6825C21.3339 17.5983 21.2 17.4766 21.1011 17.3283C21.0022 17.1799 20.9414 17.0095 20.9241 16.832C20.9068 16.6546 20.9336 16.4756 21.002 16.311C21.4396 15.2612 21.6653 14.1353 21.666 12.998C21.666 12.7106 21.7802 12.435 21.9834 12.2318C22.1866 12.0286 22.4621 11.9145 22.7495 11.9145C23.0369 11.9145 23.3125 12.0286 23.5157 12.2318C23.7189 12.435 23.833 12.7106 23.833 12.998C23.8318 14.4196 23.5493 15.827 23.002 17.139C22.9205 17.3374 22.782 17.5071 22.604 17.6267C22.426 17.7463 22.2165 17.8105 22.002 17.811Z" fill="#1F83F4"/>
<path d="M22.003 10.357C21.7889 10.3567 21.5796 10.293 21.4017 10.174C21.2237 10.0549 21.085 9.88581 21.003 9.688C20.5687 8.63592 19.9304 7.68022 19.125 6.876C18.9257 6.67208 18.8148 6.39778 18.8165 6.11262C18.8181 5.82747 18.9322 5.55448 19.1339 5.3529C19.3356 5.15133 19.6087 5.03744 19.8938 5.03596C20.179 5.03448 20.4532 5.14553 20.657 5.345C21.6636 6.35032 22.4613 7.54494 23.004 8.86C23.0724 9.02463 23.0992 9.20361 23.0819 9.38105C23.0646 9.5585 23.0038 9.72895 22.9049 9.87729C22.806 10.0256 22.6721 10.1473 22.5149 10.2315C22.3578 10.3157 22.1823 10.3598 22.004 10.36L22.003 10.357Z" fill="#1F83F4"/>
<path d="M16.727 5.08099C16.5842 5.0811 16.4428 5.05289 16.311 4.99799C15.2612 4.56037 14.1353 4.3347 12.998 4.33399C12.7106 4.33399 12.435 4.21984 12.2318 4.01664C12.0286 3.81345 11.9145 3.53785 11.9145 3.25049C11.9145 2.96313 12.0286 2.68754 12.2318 2.48434C12.435 2.28115 12.7106 2.16699 12.998 2.16699C14.4196 2.16823 15.827 2.45065 17.139 2.99799C17.3699 3.09458 17.5602 3.26807 17.6777 3.48903C17.7952 3.70998 17.8326 3.96478 17.7836 4.21019C17.7346 4.4556 17.6022 4.67651 17.4089 4.83541C17.2156 4.99432 16.9732 5.08144 16.723 5.08199L16.727 5.08099Z" fill="#1F83F4"/>
</g>
<defs>
<clipPath id="clip0_13359_4068">
<rect width="26" height="26" fill="white"/>
</clipPath>
</defs>
</svg>
