<svg width="19" height="21" viewBox="0 0 19 21" fill="none" xmlns="http://www.w3.org/2000/svg">
<path d="M9.126 10.43C10.1574 10.43 11.1657 10.1241 12.0233 9.55112C12.8809 8.97808 13.5493 8.16361 13.944 7.2107C14.3387 6.25778 14.442 5.20922 14.2408 4.19761C14.0396 3.186 13.5429 2.25677 12.8136 1.52744C12.0842 0.79811 11.155 0.301429 10.1434 0.100207C9.13179 -0.101015 8.08322 0.00225958 7.13031 0.396971C6.17739 0.791682 5.36292 1.4601 4.78989 2.3177C4.21686 3.17531 3.911 4.18357 3.911 5.215C3.91087 5.89988 4.04567 6.57808 4.3077 7.21085C4.56973 7.84362 4.95386 8.41857 5.43815 8.90286C5.92243 9.38714 6.49738 9.77127 7.13015 10.0333C7.76292 10.2953 8.44112 10.4301 9.126 10.43ZM12.776 11.73H12.1C11.1688 12.1595 10.1555 12.3818 9.13 12.3818C8.10452 12.3818 7.09123 12.1595 6.16 11.73H5.48C4.76033 11.7296 4.04764 11.871 3.38266 12.1462C2.71768 12.4214 2.11346 12.825 1.60453 13.3338C1.0956 13.8427 0.69194 14.4468 0.416625 15.1117C0.14131 15.7767 -0.00026254 16.4893 3.65497e-07 17.209V18.9C3.65497e-07 19.4188 0.206078 19.9163 0.5729 20.2831C0.939721 20.6499 1.43724 20.856 1.956 20.856H16.3C16.8181 20.8549 17.3146 20.6484 17.6805 20.2817C18.0465 19.915 18.252 19.4181 18.252 18.9V17.209C18.2517 15.7568 17.6747 14.3641 16.6478 13.3372C15.6209 12.3103 14.2282 11.7333 12.776 11.733V11.73Z" fill="#1F83F4"/>
</svg>
