<svg width="23" height="23" viewBox="0 0 23 23" fill="none" xmlns="http://www.w3.org/2000/svg">
<g clip-path="url(#clip0_31_1114)">
<path d="M13.121 4.50492H2.64203C1.97611 4.50676 1.33799 4.77212 0.86711 5.243C0.39623 5.71388 0.130876 6.352 0.129028 7.01792L0.129028 15.4869C0.130876 16.1528 0.39623 16.791 0.86711 17.2618C1.33799 17.7327 1.97611 17.9981 2.64203 17.9999H13.121C13.7869 17.9981 14.4251 17.7327 14.8959 17.2618C15.3668 16.791 15.6322 16.1528 15.634 15.4869V7.01792C15.6358 6.68742 15.5719 6.35986 15.4462 6.0542C15.3206 5.74853 15.1355 5.47081 14.9018 5.23712C14.6681 5.00342 14.3904 4.81838 14.0847 4.6927C13.7791 4.56702 13.4515 4.50319 13.121 4.50492Z" fill="#404040"/>
<path d="M20.981 5.90388C20.8292 5.93619 20.6845 5.99583 20.554 6.07988L16.634 8.34188V14.1719L20.579 16.4339C20.7502 16.5349 20.9397 16.6008 21.1366 16.6276C21.3335 16.6545 21.5338 16.6418 21.7257 16.5903C21.9176 16.5388 22.0973 16.4495 22.2543 16.3277C22.4113 16.2059 22.5425 16.054 22.64 15.8809C22.7705 15.651 22.8394 15.3912 22.84 15.1269V7.36188C22.8378 7.13504 22.7846 6.91159 22.6843 6.7081C22.5841 6.5046 22.4393 6.32624 22.2608 6.18624C22.0823 6.04624 21.8746 5.94818 21.6531 5.8993C21.4315 5.85043 21.2019 5.85199 20.981 5.90388Z" fill="#404040"/>
</g>
<defs>
<clipPath id="clip0_31_1114">
<rect width="22" height="22" fill="white" transform="translate(0.129028 0.252441)"/>
</clipPath>
</defs>
</svg>
